<svg width="100" height="100" viewBox="0 0 100 100" fill="none" xmlns="http://www.w3.org/2000/svg">
<path d="M50 5C25.1371 5 5 25.1371 5 50C5 74.8629 25.1371 95 50 95C74.8629 95 95 74.8629 95 50C95 25.1371 74.842 5 50 5ZM92.0516 50C92.0516 73.2319 73.211 92.0725 49.9791 92.0725C26.7472 92.0725 7.92751 73.211 7.92751 50C7.92751 26.789 26.7681 7.92751 50 7.92751C73.2319 7.92751 92.0725 26.7681 92.0725 50H92.0516Z" fill="#6F6F6F"/>
<path d="M50 23.3386V24.8024C63.8847 24.8024 75.1975 36.1151 75.1975 49.9999H76.6612C76.6612 35.2787 64.7212 23.3386 50 23.3386ZM50 75.1974C36.1152 75.1974 24.8025 63.8846 24.8025 49.9999H23.3387C23.3387 64.7211 35.2788 76.6611 50 76.6611" fill="#6F6F6F"/>
<path d="M71.5381 31.013C72.1445 31.6612 73.0228 32.7068 73.5246 33.355L82.6208 27.6254C82.1608 27.0399 81.4498 26.1408 80.9061 25.5134L75.1348 29.2983L74.7375 29.6329L75.0302 29.2147L77.5813 24.1752L75.783 22.3977L70.7017 24.9279L70.2835 25.2207L70.618 24.8234L74.4238 19.0938C73.7547 18.5292 73.1064 18.0065 72.2909 17.3792L66.5195 26.4126C67.2514 26.9772 68.2133 27.7927 68.8406 28.3573L74.2774 25.5553L74.6329 25.3043L74.382 25.6598L71.559 31.0757L71.5381 31.013Z" fill="#6F6F6F"/>
<path d="M50.8782 19.5538L53.3666 14.0124L53.5339 13.5315L53.4921 14.0334L53.7639 21.4358C54.6422 21.5194 55.5413 21.6449 56.4196 21.7913L56.0223 10.834C54.7885 10.6876 53.5339 10.604 52.3002 10.5413L49.8536 16.5845L49.77 17.0236L49.6863 16.5845L47.2398 10.5413C46.006 10.604 44.7723 10.6876 43.5176 10.834L43.1203 21.7913C43.9986 21.6449 44.9187 21.5194 45.776 21.4358L46.0478 14.0334L46.006 13.5315L46.1733 14.0124L48.6617 19.5538H50.9201H50.8782Z" fill="#6F6F6F"/>
<path d="M30.7621 28.2944C32.2049 26.7889 33.0204 25.0533 31.5776 23.4013C30.8039 22.5022 29.4865 22.314 28.3992 22.7531L28.2946 22.7949L28.3364 22.6904C28.5037 22.2721 28.6083 20.892 27.4373 19.951C26.8727 19.491 26.1408 19.3237 25.4298 19.3865C24.0706 19.5328 23.046 20.432 20.223 23.5686C19.3657 24.5096 18.132 25.9943 17.3792 26.9771L25.1371 34.2958C27.7091 31.4729 28.7546 30.4064 30.783 28.2944H30.7621ZM20.6204 26.4961C22.1887 24.5932 23.8406 22.8786 24.5934 22.1885C24.8234 21.9794 25.0953 21.7494 25.4089 21.6657C25.9108 21.5194 26.4545 21.8957 26.559 22.3976C26.6845 22.9204 26.3499 23.4222 25.9735 23.8195C25.1371 24.7396 22.105 27.8971 22.105 27.8971L20.5994 26.4752L20.6204 26.4961ZM23.6733 29.3609C23.6733 29.3609 26.6217 26.2661 27.5836 25.2624C27.96 24.8651 28.211 24.6351 28.4828 24.5096C28.8174 24.3423 29.1938 24.3005 29.5283 24.5305C29.8629 24.7396 30.0093 25.116 29.9256 25.4924C29.8211 25.9315 29.4656 26.3497 29.152 26.6843C28.7546 27.1234 25.2416 30.8456 25.2416 30.8456L23.6733 29.3609Z" fill="#6F6F6F"/>
<path d="M50 23.3386V49.9999H23.3387C23.3387 35.2578 35.2579 23.3386 50 23.3386Z" fill="#0066B1"/>
<path d="M76.6612 50C76.6612 64.7421 64.7421 76.6612 50 76.6612V50H76.6612Z" fill="#0066B1"/>
</svg>
