<svg width="100" height="100" viewBox="0 0 100 100" fill="none" xmlns="http://www.w3.org/2000/svg">
<g clip-path="url(#clip0_1406_86538)">
<path d="M75.2645 5C76.8224 5 78.0824 6.24448 78.0824 7.7869V92.2131C78.0824 93.7524 76.8224 95 75.2645 95H24.8148C23.26 95 22 93.7524 22 92.2131V7.7869C22 6.24448 23.26 5 24.8148 5H75.2645Z" fill="white"/>
<path d="M23.0955 17.5161H77.0241V92.0454C77.0241 92.6661 76.9186 93.0478 76.4997 93.4637C76.0465 93.9137 75.6493 93.954 74.9293 93.954L24.7031 93.9603C24.3059 93.9603 24.0048 93.833 23.6759 93.5568C23.2693 93.2092 23.0924 92.7747 23.0924 92.3154V17.5161" fill="#FFF200"/>
<path d="M77.0241 13.7642H23.0955V17.5938H77.0241V13.7642Z" fill="#ED1C24"/>
<path d="M77.0241 9.92822H23.0955V13.7579H77.0241V9.92822Z" fill="white"/>
<path d="M24.6193 6.03345H75.463C76.2762 6.03345 77.0272 6.81862 77.0272 7.58517V10.0307H23.0955L23.1017 7.88V7.7C23.1017 6.83414 23.7689 6.12034 24.6224 6.03345" fill="#009A4E"/>
<path d="M75.2645 5C76.8224 5 78.0824 6.24448 78.0824 7.7869V92.2131C78.0824 93.7524 76.8224 95 75.2645 95H24.8148C23.26 95 22 93.7524 22 92.2131V7.7869C22 6.24448 23.26 5 24.8148 5H75.2645ZM75.2645 6.11103H24.8148C23.8807 6.11103 23.1234 6.86207 23.1234 7.7869V92.2131C23.1234 93.1379 23.8807 93.8828 24.8148 93.8828H75.2645C76.1986 93.8828 76.9559 93.1379 76.9559 92.2131V7.7869C76.9559 6.86207 76.1986 6.11103 75.2645 6.11103Z" fill="black"/>
<path d="M49.0497 22.2458C49.0497 22.2458 49.0155 22.5717 48.941 22.761C48.8666 22.9379 48.6773 23.0559 48.6897 23.1738C48.7021 23.2886 48.8262 23.4283 49.0186 23.5276C49.2048 23.6269 49.2824 23.7014 49.4748 23.751C49.6548 23.7945 49.8814 23.9248 49.9435 23.7758C50.0086 23.6238 49.9093 23.4376 49.8038 23.2607C49.6145 22.9503 49.5183 22.8758 49.2421 22.4507C49.1831 22.3576 49.1366 22.2614 49.0528 22.249" fill="black"/>
<path d="M47.6376 55.729C47.6562 55.6731 48.1031 55.9556 48.3327 56.0921C48.82 56.3838 49.0403 56.5576 49.4717 56.8804C49.8131 57.1411 49.9776 57.2745 50.3221 57.5693C50.7441 57.9325 50.9707 58.2428 51.0824 58.1714C51.2469 57.9759 50.8155 57.4018 50.4307 57.0883C50.0583 56.7811 49.6734 56.5328 49.3786 56.3373C48.9969 56.0828 48.9627 56.0238 48.3917 55.6421C47.7772 55.2324 47.2496 54.7142 47.2496 54.7142L46.6538 54.2456L45.7196 53.4573L44.68 52.5014L43.8948 51.6293C43.8948 51.6293 43.2834 50.8845 43.1872 50.7387C43.0879 50.5959 42.8024 50.1366 42.5634 49.7456C42.3524 49.3949 41.9396 48.8518 41.9024 48.8052C41.6821 48.5383 41.1731 48.6438 40.5865 48.2993C39.8727 47.8773 39.699 47.4925 39.699 47.4925C39.699 47.4925 39.671 47.4366 39.6462 47.4056C39.6183 47.3745 39.5655 47.3342 39.5655 47.3342L39.19 47.0735L38.9759 46.9338C38.9759 46.9338 38.8145 46.8004 38.6096 46.7135C38.4048 46.6235 37.9455 46.3566 37.9455 46.3566L37.1293 45.8352C37.1293 45.8352 36.8096 45.5776 36.7041 45.4938C36.5955 45.4131 36.3938 45.2952 36.3938 45.2952C36.3938 45.2952 36.2665 45.23 36.2262 45.2269C36.1859 45.2269 36.0183 45.2083 36.0183 45.2083C36.0183 45.2083 35.86 45.168 35.7017 45.3542C35.5403 45.5435 35.5807 45.4411 35.8414 46.5056C35.9438 46.9245 35.9345 48.3987 36.0462 48.8487C36.1859 49.4259 36.5924 50.1707 36.6359 50.2607C36.6762 50.3476 36.7041 50.6704 36.7041 50.6704C36.7041 50.6704 36.6855 50.9311 36.7134 51.0956C36.8376 51.859 37.9517 51.3562 38.1969 52.4021C38.439 53.4356 38.051 54.4628 38.051 54.4628C38.051 54.4628 37.8121 54.9749 37.4738 55.0556C37.1355 55.1331 36.611 54.3852 36.2324 53.78C35.8569 53.1842 35.5527 52.4021 35.4534 52.1538C35.3541 51.9056 35.3045 51.8497 35.1896 51.6728C35.0221 51.4028 34.8886 51.4525 34.6993 51.0304C34.51 50.6083 34.6776 50.4376 34.5938 50.0683C34.5441 49.8635 34.5007 49.8418 34.4355 49.55C34.3734 49.2583 34.2896 48.3335 34.2896 48.3335L34.1717 47.4707C34.1717 47.4707 34.1314 47.0766 34.0755 46.8314C33.8893 45.9687 33.821 45.1369 33.821 45.1369L33.7869 44.7956L33.7745 44.4418C33.7745 44.4418 33.7621 44.2711 33.8055 44.0973C33.8459 43.9235 33.9327 43.7776 33.9327 43.7776C33.9327 43.7776 34.1065 43.4859 34.1376 43.4145C34.1655 43.3462 34.5224 42.9335 34.5224 42.9335C34.5224 42.9335 34.7086 42.7783 35.0127 42.5921C35.3169 42.4059 35.59 42.4183 35.59 42.4183C35.59 42.4183 35.6707 42.4121 36.2107 42.4773C36.7507 42.5425 37.8586 42.8373 38.1379 42.9118C38.4141 42.9862 38.7431 43.1011 38.9572 43.2221C39.5748 43.5573 39.761 43.4145 39.2707 43.0297C38.9417 42.7721 38.8486 42.6542 38.5817 42.4121C38.3583 42.2042 38.1814 42.0676 38.0138 41.8783C37.8462 41.6828 37.3683 40.9814 37.3683 40.9814L37.0703 40.5407C37.0703 40.5407 36.909 40.3607 36.8841 40.3452C36.8593 40.3297 36.7786 40.2676 36.7786 40.2676C36.7786 40.2676 36.58 40.2769 36.3752 40.2397C36.1672 40.1993 36.0741 40.488 36.0741 40.488C36.0741 40.488 35.6303 41.3166 35.1803 41.8225C34.451 42.6449 33.9265 43.2035 33.6565 43.6442C33.281 44.2525 33.3617 44.9166 33.1693 45.2238C33.0545 45.4038 32.9955 45.4318 32.9334 45.5869C32.7441 46.0649 33.43 46.3256 33.2748 46.8562C33.0234 47.6942 31.059 48.5259 30.7983 48.3862C30.5283 48.2435 30.7486 47.1076 30.8386 46.7414C30.9317 46.3721 31.2079 45.829 31.2327 45.8011C31.2576 45.7731 31.3227 45.6459 31.3445 45.5373C31.3662 45.4287 31.3724 45.1835 31.3848 45.0469C31.3972 44.9104 31.4531 44.6931 31.4531 44.6931C31.4531 44.6931 31.4593 44.6466 31.6331 44.2711C31.8069 43.8925 32.4493 43.0111 32.9055 42.1669C33.2065 41.6176 33.3338 41.2856 33.6348 40.7331C33.9141 40.2273 34.3921 39.4576 34.3921 39.4576C34.3921 39.4576 34.5938 39.0635 34.6869 38.9176C34.7831 38.7687 34.9848 38.4831 35.1741 38.2038C35.3634 37.9245 35.41 37.7166 35.6583 37.4869C35.8631 37.2945 36.0027 37.1921 36.2727 37.1083C36.6731 36.9749 36.9462 37.0462 37.3527 37.1611C37.7748 37.2759 38.0665 37.4714 38.3459 37.7011C38.6221 37.9338 38.8269 38.1883 38.8269 38.1883L38.9603 38.3869L39.0441 38.4366L39.3017 38.6011L39.8914 38.989C39.8914 38.989 41.2879 39.9387 41.3655 39.9914C41.44 40.0411 41.6914 40.2459 41.741 40.2614C41.7938 40.2769 42.1631 39.8735 42.8955 39.3707C43.7396 38.7842 44.0376 38.8276 44.3169 38.6756C44.5931 38.5235 44.7048 38.3962 44.9221 38.179C45.251 37.85 45.251 37.6762 45.6234 37.22C45.999 36.7638 46.3465 36.5093 46.3465 36.5093C46.3465 36.5093 46.3993 36.4566 47.0634 35.7056C47.7276 34.9545 48.0224 34.3866 48.0224 34.3866L48.3886 33.6542C48.3886 33.6542 48.9162 32.5152 49.0869 32.0652C49.2576 31.6152 49.2576 31.4631 49.2576 31.4631C49.2576 31.4631 49.2824 31.3452 49.1552 31.1156C49.0217 30.8859 48.8852 30.9914 48.6338 31.0411C48.1496 31.1435 47.8548 31.0193 47.3645 30.9325C46.9145 30.858 46.6817 30.7245 46.2317 30.65C45.7755 30.5725 45.5086 30.498 45.0524 30.5414C44.9841 30.5476 44.8445 30.5787 44.7762 30.6004C44.5186 30.6873 44.4472 30.7059 44.2548 30.8176C44.0345 30.92 43.8855 30.9542 43.6403 30.9604C43.4696 30.9666 43.3672 30.9697 43.209 30.9076C43.1003 30.8673 43.0383 30.8331 42.9545 30.7587C42.9017 30.7121 42.8738 30.6811 42.8365 30.6221C42.8303 30.5756 42.8148 30.5756 42.8645 30.498C42.911 30.4173 42.9669 30.4049 42.9669 30.4049L43.1748 30.3521C43.1748 30.3521 43.4696 30.2745 43.4976 30.2683C43.5255 30.2621 43.8048 30.169 43.929 30.1318C44.0531 30.0914 44.1896 30.02 44.1896 30.02C44.1896 30.02 44.2641 29.899 44.2362 29.8307C44.199 29.7531 44.0314 29.7438 44.0314 29.7438C44.0314 29.7438 43.7986 29.8307 43.7707 29.8369C43.7459 29.8431 43.3703 29.9611 43.3703 29.9611C43.3703 29.9611 43.0755 30.0262 42.849 30.079C42.6193 30.1318 42.2934 30.1566 42.2934 30.1566L42.1941 30.1287C42.1941 30.1287 42.0824 30.0542 42.0669 29.9766C42.0514 29.9083 42.039 29.8556 42.0265 29.7749C41.9769 29.4862 41.9179 29.3094 41.9862 29.0238C42.0141 28.9028 42.039 28.8376 42.0917 28.7259C42.1352 28.6328 42.1662 28.58 42.2221 28.4931L42.4021 28.1983L42.7434 27.6956C42.8614 27.5776 42.939 27.5187 43.0848 27.4349C43.3021 27.3138 43.4262 27.2797 43.6993 27.2487C43.9662 27.2207 44.0003 27.2238 44.379 27.1369C44.7576 27.05 45.0276 26.9011 45.0276 26.9011C45.0276 26.9011 45.9338 26.569 46.4862 26.299C47.0634 26.0166 47.3179 25.7125 47.9138 25.4797C48.1683 25.3804 48.3141 25.3338 48.5748 25.2687C48.609 25.2469 48.6245 25.2283 48.6338 25.188C48.6586 25.0949 48.5127 25.0483 48.4134 25.0607C48.3234 25.0669 48.1155 25.1631 48.069 25.0607C48.0348 24.98 48.2583 24.9335 48.2583 24.9335C48.2583 24.9335 48.3638 24.8838 48.3669 24.8249C48.3669 24.7349 48.2148 24.7938 48.1465 24.7845C47.7959 24.7442 47.7679 24.6821 47.5227 24.6231C47.2372 24.5518 47.0821 24.4618 46.7841 24.4493C46.5234 24.44 46.2752 24.4959 46.1107 24.5331C45.9493 24.5735 45.9431 24.4152 46.0083 24.3842C46.4676 24.17 46.4769 24.1514 46.8027 24.1359C46.9796 24.1297 47.2279 24.1669 47.2559 24.1793C47.2838 24.1949 47.6376 24.1793 47.7276 24.0831C47.8207 23.9931 47.4359 23.9962 47.2559 23.9249C47.0883 23.8597 46.8338 23.838 46.8369 23.7293C46.8462 23.6176 46.9703 23.6797 47.0572 23.658C47.169 23.63 47.231 23.6331 47.3459 23.6176C47.5507 23.5897 47.5662 23.5711 47.8703 23.5462C48.1683 23.5183 48.5996 23.6456 48.5996 23.6456C48.5996 23.6456 49.0527 23.8473 49.2731 23.9528C49.4934 24.0552 49.7634 24.1111 49.7634 24.1111C49.7634 24.1111 50.0769 24.1545 50.319 24.0056C50.561 23.8566 50.4245 23.7573 50.3407 23.6207C50.2569 23.4935 50.1514 23.3073 50.3065 22.9535C50.4431 22.6462 50.5145 22.2862 50.5548 22.2552C50.6045 22.2149 50.7938 22.4911 50.9179 22.6059C51.3617 23.0187 51.9452 23.2235 52.4976 24.0862C52.541 24.1545 52.7459 24.0459 53.3852 24.1421C54.0245 24.2414 54.5862 24.9273 54.7259 25.0887C54.8717 25.2531 55.061 25.2438 55.061 25.2438L55.3683 25.2842L56.4855 25.3028C56.4855 25.3028 56.9914 25.2128 57.2831 25.3245C57.4879 25.4021 58.1676 25.8552 57.8572 26.029C57.64 26.15 57.4352 25.8831 57.2396 25.8707C57.0069 25.8552 56.9076 25.8987 56.6996 25.9514C56.2652 26.06 55.3372 26.3393 55.6755 26.4542C55.7003 26.4635 55.75 26.4728 55.75 26.4728L55.9176 26.5007C55.9176 26.5007 56.3272 26.5938 56.5724 26.69C56.9448 26.8359 57.1217 27.0004 57.4631 27.2021C57.6586 27.3169 57.7455 27.4287 57.9596 27.4938C58.1552 27.5497 58.2824 27.4938 58.4841 27.528C58.7479 27.5745 58.8969 27.6304 59.139 27.7452C59.499 27.919 59.6293 28.1269 59.9521 28.3597C60.1134 28.4776 60.25 28.4931 60.371 28.6514C60.399 28.6856 60.4207 28.7042 60.4331 28.7476C60.4765 28.8904 60.1972 28.8066 60.0483 28.7818C59.8838 28.7538 59.8155 28.6731 59.6665 28.6049C59.4431 28.4993 59.3376 28.3845 59.0924 28.338C58.9155 28.3038 58.81 28.3318 58.63 28.338C58.4531 28.3442 58.36 28.3721 58.1831 28.3752C57.8821 28.3814 57.7145 28.3535 57.4196 28.2914C57.0907 28.2231 56.9262 28.0928 56.5972 28.0245C56.2279 27.9469 55.5731 27.6304 55.6352 27.9469C55.6693 28.099 56.0169 28.2293 56.0169 28.2293C56.0169 28.2293 56.2559 28.3566 56.4824 28.459C56.709 28.5583 56.8362 28.7073 56.8362 28.7073L56.9914 28.8221C56.9914 28.8221 57.1527 29.0425 57.3638 29.2938C57.5717 29.5421 57.9379 29.5328 57.9379 29.5328C57.9379 29.5328 58.1583 29.5328 58.6393 29.6321C59.1141 29.7314 59.6076 30.0262 59.6076 30.0262C59.6076 30.0262 59.9769 30.2807 60.1941 30.5352C60.4083 30.7897 60.2841 30.92 60.2562 30.9449C60.2314 30.9728 60.2407 30.9604 60.2096 30.9728C60.1848 30.9852 59.9179 30.65 59.9179 30.65L59.7255 30.4887C59.7255 30.4887 59.5393 30.3583 59.2972 30.2807C59.0552 30.2031 58.9745 30.2559 58.9745 30.2559C58.9745 30.2559 58.4593 30.3987 58.0124 30.3862C57.5686 30.3738 57.3359 30.1969 57.3359 30.1969L57.0534 30.0076C57.0534 30.0076 56.6314 29.6104 56.6159 29.7997C56.6065 29.9269 56.8021 30.0666 56.8021 30.0666C56.8021 30.0666 56.9386 30.2031 57.0286 30.29C57.1993 30.4576 57.2707 30.5445 57.4662 30.7183C57.6617 30.8952 57.7828 30.8952 57.7828 30.8952C57.7828 30.8952 57.8883 30.92 57.9286 30.9293C57.969 30.9356 58.0403 30.9573 58.0403 30.9573C58.0403 30.9573 58.1055 30.9821 58.4127 31.1062C58.7169 31.2304 59.049 31.4973 59.049 31.4973C59.049 31.4973 59.08 31.5221 59.1234 31.5314C59.17 31.5376 59.26 31.5811 59.2848 31.5904C59.3127 31.5966 59.3903 31.5966 59.5672 31.6214C59.7472 31.6493 59.679 31.7611 59.679 31.7611L59.6479 31.8045L59.5021 31.9038C59.5021 31.9038 59.3127 31.9566 59.1855 31.9628C59.0552 31.969 58.869 31.8976 58.869 31.8976L58.4717 31.7487C58.4717 31.7487 58.0714 31.6431 57.9845 31.6276C57.8976 31.6152 57.5407 31.5438 57.4817 31.5314C57.4227 31.519 57.2459 31.4538 57.1962 31.4259C57.1496 31.4011 57.0596 31.3825 56.8424 31.2769C56.6283 31.1714 56.5414 31.0504 56.2745 30.9635C56.0045 30.8766 55.84 30.8611 55.6383 31.0007C55.2907 31.2397 56.1628 31.28 56.5972 31.4942C57.2365 31.8107 57.5965 32.0404 57.7486 32.3818C57.9038 32.7231 58.0559 32.8473 58.0559 32.8473C58.0559 32.8473 58.5059 33.0738 58.7076 33.3128C58.8193 33.44 58.8348 33.5487 58.9434 33.6759C59.1917 33.9645 59.6696 33.949 59.7659 34.1942C59.8559 34.4238 59.3779 34.3214 59.1265 34.2966C58.6765 34.2531 58.571 33.8404 58.1521 33.6759C57.9162 33.5828 57.7641 33.5828 57.5221 33.499C57.0814 33.3531 56.8734 33.1638 56.4327 33.0273C56.1659 32.9466 55.6817 32.5928 55.7438 32.8659C55.7531 32.9311 55.7934 32.9807 55.8121 33.0211C55.8338 33.0614 55.9455 33.2042 55.9455 33.2042C55.9455 33.2042 56.0945 33.3997 56.1628 33.4525C56.2248 33.5052 56.5103 33.7193 56.92 33.9428C57.3234 34.1631 57.6772 34.5914 57.6772 34.5914C57.6772 34.5914 57.7983 34.7652 57.8572 34.8862C57.9162 35.0228 57.8759 35.0631 57.9721 35.2525C58.059 35.4387 58.1024 35.4759 58.2234 35.5938C58.5214 35.8793 58.8317 35.8235 59.2103 35.9787C59.3127 36.0221 59.3221 36.0376 59.4307 36.1556C59.5424 36.2735 59.409 36.3231 59.409 36.3231C59.409 36.3231 58.9869 36.4318 58.7169 36.41C58.3631 36.3821 58.2048 36.2735 57.8634 36.1028C57.5159 35.9321 57.3359 35.628 57.2986 35.6062C57.2676 35.5845 57.1838 35.4945 57.1155 35.448C57.0503 35.4014 56.8796 35.3673 56.7307 35.3238C56.5755 35.2835 56.4917 35.2742 56.3365 35.2338C56.1286 35.1749 55.9114 35.0818 55.8121 35.0507C55.7127 35.0166 55.4893 34.9762 55.3248 35.0725C54.9959 35.268 55.8338 35.3983 56.0945 35.6776C56.2279 35.8173 56.2838 35.9166 56.411 36.0625C56.5072 36.1773 56.5476 36.2549 56.6655 36.3449C56.7462 36.4038 56.8952 36.469 56.8952 36.469C56.8952 36.469 57.0969 36.5621 57.3917 36.7235C57.6865 36.8849 58.031 37.3473 58.031 37.3473L58.239 37.6669L58.3631 37.85L58.3972 37.9338L58.4438 38.0362C58.4438 38.0362 58.5959 38.2318 58.7045 38.2969C58.8162 38.3652 58.7945 38.4211 58.7945 38.4211C58.7945 38.4211 58.7821 38.4614 58.7045 38.5049C58.63 38.5514 58.5865 38.5111 58.4748 38.48C58.3631 38.449 58.2917 38.3435 58.1955 38.2659C58.0931 38.1852 57.9876 37.9897 57.8107 37.878C57.6524 37.7818 57.4445 37.7476 57.3638 37.7228C57.2862 37.6949 57.0876 37.5707 57.01 37.5366C56.9355 37.5056 56.7307 37.4125 56.7307 37.4125C56.7307 37.4125 56.3365 37.1921 56.1193 37.1331C55.9021 37.0711 56.0417 37.2045 56.0417 37.2045C56.0417 37.2045 56.2372 37.5056 56.4234 37.6266C56.6655 37.788 57.0069 37.9276 56.8952 38.058C56.8207 38.1418 56.7183 38.1107 56.6065 38.0983C56.4265 38.0766 56.2062 37.8593 56.2062 37.8593C56.2062 37.8593 56.1162 37.8004 55.7096 37.6731C55.3062 37.5397 55.4552 37.7631 55.5483 37.8811C55.6383 37.9959 55.7624 38.0642 55.7624 38.0642L56.0386 38.1883L56.1659 38.2287C56.1659 38.2287 56.2776 38.2473 56.6407 38.3342C57.0069 38.418 57.2086 38.5949 57.2086 38.5949C57.2086 38.5949 57.4041 38.778 57.6772 38.9797C57.9534 39.1845 58.2265 39.2342 58.3786 39.2559C58.5307 39.2745 58.5245 39.38 58.5245 39.38C58.5245 39.38 58.5431 39.4762 58.5338 39.5073C58.5276 39.5414 58.4965 39.5662 58.4624 39.5662C58.4314 39.5662 58.4159 39.5787 58.3755 39.6004C58.3352 39.619 58.18 39.6469 58.18 39.6469C58.18 39.6469 57.7703 39.6345 57.4507 39.5538C57.1341 39.4762 56.8517 39.2528 56.8207 39.2404C56.7959 39.228 56.4979 39.0635 56.2931 38.9983C56.0945 38.93 55.7748 38.9611 55.7376 38.9735C55.7065 38.9859 55.5948 39.0045 55.4055 39.0604C55.2131 39.11 55.4521 39.1845 55.4521 39.1845L55.5886 39.1969L55.9145 39.2218C55.9145 39.2218 56.2527 39.2621 56.5383 39.3676C56.8238 39.47 57.01 39.6811 57.1993 39.8704C57.3886 40.0566 57.5965 40.1807 57.5965 40.1807L57.7486 40.28L57.8262 40.339L57.8448 40.3918C57.8448 40.3918 57.8386 40.4197 57.8262 40.4507C57.8138 40.4849 57.7672 40.5097 57.7672 40.5097C57.7672 40.5097 57.6959 40.4973 57.6679 40.4973C57.6338 40.4973 57.4196 40.3825 57.2614 40.3142C57.0969 40.2428 57.0131 40.1745 56.8393 40.1311C56.6872 40.0938 56.4855 40.0783 56.4421 40.0907C56.3955 40.1031 56.0634 40.1497 55.8059 40.1683C55.5483 40.1869 55.3279 40.1931 55.0238 40.1559C54.5924 40.1031 54.0214 39.7649 53.9469 39.858C53.7979 40.0566 54.251 40.1125 54.4745 40.2397C54.7755 40.4135 55.3 40.5718 55.3 40.5718C55.3 40.5718 55.6817 40.6556 55.9083 40.7611C56.3986 40.9907 56.5476 41.3259 56.9448 41.6828C57.1621 41.8814 57.339 41.9683 57.6307 42.0118C57.8821 42.049 57.879 42.018 58.2762 41.9404C58.6765 41.8597 58.9186 41.4811 59.0334 41.6207C59.0552 41.6487 59.0459 41.6735 59.0396 41.7107C59.0334 41.7511 58.9993 41.8225 58.9993 41.8225C58.9993 41.8225 58.9527 41.8876 58.8845 41.959C58.81 42.0304 58.5369 42.1793 58.3941 42.2414C58.2514 42.3004 57.8976 42.3997 57.4538 42.3842C57.01 42.3718 56.3862 42.0304 56.3862 42.0304L55.9362 41.8411C55.9362 41.8411 55.7283 41.7449 55.5886 41.6921C55.2162 41.5525 54.9772 41.5649 54.5955 41.4625C54.3596 41.3973 54.2014 41.3321 53.9872 41.2887C53.77 41.2421 53.8941 41.329 53.9128 41.3569C54.0121 41.4935 54.1486 41.5369 54.3224 41.6176C54.549 41.7293 54.7072 41.7045 54.94 41.8038C55.2007 41.9093 55.4272 42.0552 55.57 42.1483C55.7096 42.2383 55.8183 42.3438 55.9548 42.4866L56.4296 42.8962C56.4296 42.8962 56.5414 42.9862 56.5538 43.0235C56.5662 43.0638 56.619 43.16 56.5941 43.3183C56.5662 43.4766 56.439 43.3649 56.439 43.3649L56.3117 43.2842L56.1845 43.1693L55.9859 43.0049C55.9859 43.0049 55.8152 42.8497 55.5203 42.7007C55.2286 42.5487 54.8748 42.5114 54.8748 42.5114C54.8748 42.5114 54.5614 42.4649 54.5738 42.5642C54.5893 42.6604 54.6607 42.6697 54.9059 42.7349C55.1541 42.8 55.3186 42.9242 55.3186 42.9242C55.3186 42.9242 55.5731 43.1135 55.7562 43.3214C55.9362 43.5293 55.9921 43.7342 55.9921 43.7342C55.9921 43.7342 56.0852 43.9049 56.321 44.1314C56.5569 44.3611 56.6779 44.2804 56.6655 44.3921C56.6531 44.5038 56.5507 44.5225 56.5507 44.5225C56.5507 44.5225 56.4917 44.5162 56.4638 44.5162C56.4359 44.5162 56.3769 44.4821 56.3117 44.4573C56.2465 44.4325 55.9983 44.2618 55.9983 44.2618C55.9983 44.2618 55.6103 43.9483 55.5669 43.9173C55.5203 43.8831 55.1541 43.61 55.1541 43.61C55.1541 43.61 54.9369 43.4704 54.7848 43.3928C54.6265 43.3152 54.4155 43.2345 54.2976 43.1973C54.1827 43.16 53.9655 43.1476 53.9655 43.1476C53.9655 43.1476 53.7048 43.1073 53.5465 43.0483C53.2983 42.9521 53.0065 42.6852 52.9755 42.6728C52.9414 42.6604 52.7086 42.5797 52.6621 42.5859C52.6155 42.5921 52.51 43.0297 52.4852 43.2842C52.3796 44.3456 52.6621 45.05 53.0996 46.0214C53.7327 47.4335 55.4924 49.1931 55.4924 49.1931C55.4924 49.1931 55.9362 49.4445 56.1224 49.5935C56.65 50.0062 57.5221 50.5897 58.2948 51.3593C58.9559 52.0204 59.831 53.1935 59.831 53.1935C59.831 53.1935 60.34 53.9011 60.5759 54.4038C60.8645 55.0183 61.0941 55.9556 61.0941 55.9556C61.0941 55.9556 61.1127 56.1169 61.1283 56.1511C61.15 56.1821 61.1934 56.2256 61.2245 56.2256L61.5317 56.2349C61.5627 56.2349 61.9134 56.21 62.1431 56.1511C62.3728 56.0921 62.9159 55.8438 63.279 55.6545C63.6359 55.4621 64.0672 55.099 64.0672 55.099C64.0672 55.099 64.151 55.0276 64.57 54.559C64.9921 54.0904 65.2652 53.3859 65.3676 53.1221C65.4669 52.8583 65.5507 52.3525 65.6127 51.4835C65.6779 50.6145 65.56 49.6959 65.56 49.6959C65.56 49.6959 65.4017 48.4173 65.3055 47.9797C65.2093 47.5452 64.9765 46.8345 64.9765 46.8345C64.9765 46.8345 64.8152 46.2014 64.7655 45.8042C64.7128 45.4038 64.7065 44.7552 64.7065 44.7552C64.7065 44.7552 64.7065 44.358 64.8338 43.6225C64.9672 42.89 65.4172 42.1514 65.4172 42.1514C65.4172 42.1514 65.5445 41.9031 66.0286 41.3228C66.5252 40.73 66.6834 40.6369 67.1738 40.2831C67.5617 40.0038 68.0645 39.5569 68.2259 39.6625C68.4059 39.7773 68.049 40.0038 67.9279 40.1218C67.6238 40.4228 67.0527 40.9597 66.5934 41.7635C66.19 42.4618 66.0379 42.9211 65.9386 43.3773C65.8362 43.8304 65.8796 44.33 65.8921 44.5007C65.9076 44.6714 66.0007 44.6093 66.0007 44.6093C66.0007 44.6093 66.9814 43.8211 67.5121 43.2252C68.0893 42.5797 68.6045 41.4314 68.8062 41.4221C68.9428 41.4128 69.0048 41.72 68.9738 41.8628C68.8465 42.4587 68.8062 42.5331 68.6107 42.9273C68.3903 43.3804 68.1824 43.5821 67.8752 44.0011C67.5524 44.4387 67.3941 44.6062 67.1334 45.1866C66.7579 46.0214 66.9783 46.6669 66.9783 46.6669C66.9783 46.6669 67.0248 47.058 67.1986 47.0549C67.4934 47.0456 68.1421 46.2262 68.5641 45.559C68.8776 45.0687 68.9893 44.5007 69.1941 44.2059C69.3803 43.9421 69.5448 44.6342 69.4641 45.0438C69.371 45.528 69.1321 45.9656 68.6045 46.6514C68.0893 47.3218 68.1048 47.958 68.1048 47.958C68.1048 47.958 68.0521 48.2497 68.0086 48.8828C67.9683 49.5159 68.1514 50.4749 68.1514 50.4749C68.1514 50.4749 68.3127 51.2787 68.3469 51.8869C68.3779 52.4983 68.3562 53.8887 67.7852 54.9718C67.5586 55.4062 67.0714 56.0052 67.0714 56.0052C67.0714 56.0052 66.6959 56.39 66.3886 56.6135C66.0814 56.8369 65.3428 57.1876 65.3428 57.1876C65.3428 57.1876 64.8307 57.3645 64.7593 57.38C64.6848 57.3987 64.6383 57.4638 64.6383 57.4638C64.6383 57.4638 64.6848 57.5631 64.7034 57.6035C64.7221 57.6438 64.8648 57.9976 64.8648 57.9976C64.8648 57.9976 65.02 58.4973 65.0759 58.8914C65.1348 59.2856 65.0665 59.3787 65.0107 59.6797C64.9548 59.9683 64.8307 59.8349 64.7965 60.4059C64.7686 60.9087 64.9952 61.1631 64.9548 61.728C64.9362 61.9762 64.6569 61.4145 64.5203 61.1787C64.2317 60.6635 64.3 59.8721 64.2969 59.6766C64.2907 59.4811 64.2752 59.2638 64.2007 59.0156C64.1138 58.6928 63.9803 58.4445 63.8314 58.2459C63.6793 58.0504 63.521 57.9418 63.4683 57.9604C63.4155 57.979 63.4093 58.0814 63.4093 58.1311C63.4093 58.1869 63.5117 58.3731 63.5365 58.4135C63.5645 58.4507 63.7538 58.7952 63.7538 58.7952C63.7538 58.7952 63.8376 59.0621 63.8686 59.5804C63.9028 60.0956 63.7414 60.7349 63.7414 60.7349C63.7414 60.7349 63.5334 61.4518 63.3193 61.8769C63.0772 62.3425 62.5403 62.9787 62.5403 62.9787C62.5403 62.9787 62.1555 63.3325 61.8638 63.9097C61.5783 64.49 61.8234 64.7414 61.7179 64.8159C61.6062 64.8904 61.3796 64.4807 61.3207 64.2045C61.2617 63.9469 61.2896 63.8259 61.3952 63.5404C61.4945 63.2642 61.7241 62.8638 61.7241 62.8638L62.0686 62.2773C62.0686 62.2773 62.4876 61.4797 62.6179 60.9025C62.7483 60.3283 62.5993 59.689 62.5993 59.689C62.5993 59.689 62.5807 59.478 62.4379 59.4873C62.2921 59.4935 62.1896 59.6207 62.1307 59.7759C62.0127 60.0925 62.1803 60.0366 62.0003 60.5642C61.8607 60.98 61.8203 60.9242 61.7427 61.1725C61.6527 61.4673 61.6031 61.7683 61.6093 61.9545C61.6155 62.1345 61.5162 62.06 61.5162 62.06C61.5162 62.06 61.3393 61.7311 61.3393 61.3245C61.3393 61.1042 61.3486 60.9769 61.3734 60.7535C61.4138 60.3997 61.5596 59.8535 61.5596 59.8535C61.5596 59.8535 61.7148 59.3166 61.6838 58.8262C61.6465 58.3328 61.4759 58.2428 61.4759 58.2428C61.4759 58.2428 61.4293 58.1776 61.24 58.1869C61.0507 58.2025 61.06 58.5438 61.06 58.5438C61.06 58.5438 61.001 59.0311 60.9265 59.3321C60.7186 60.1669 60.4393 60.6045 59.9427 61.309C59.4927 61.9452 58.8876 62.5038 58.5834 62.7645C58.2824 63.0314 57.3483 63.708 57.3483 63.708L56.2559 64.4373C56.2559 64.4373 55.8214 64.8593 55.6259 65.3652C55.4241 65.868 55.4334 66.259 55.5514 66.7214C55.6662 67.1838 55.8338 67.398 55.9207 67.5283C56.0076 67.6556 56.1752 67.8821 56.231 68.149C56.2652 68.3135 56.2403 68.4097 56.2528 68.5773C56.2621 68.7231 56.2838 68.8038 56.2776 68.9528C56.2714 69.1856 56.3148 69.3469 56.1814 69.5362C56.0852 69.679 55.8245 69.8062 55.8245 69.8062C55.8245 69.8062 55.5265 69.9366 55.3496 70.0452C53.4907 71.1656 52.8296 71.8949 51.7807 73.1456C51.4486 73.5459 51.6938 73.5211 51.3369 73.9959C51.1227 74.2783 50.6231 74.2783 50.4431 74.6166C50.1917 75.079 51.0079 75.5321 50.0676 75.9387C48.8541 76.4631 46.7655 76.0876 46.7252 75.9231C46.6103 75.4731 47.1348 74.9549 47.3179 74.75C48.1683 73.8221 48.9255 73.8004 49.2048 73.0307C49.2638 72.8662 49.2421 72.7266 49.9186 72.2238C50.3934 71.8731 52.2927 70.4456 53.1214 69.4928C53.4069 69.1638 53.649 68.9497 53.7731 68.5959C53.9003 68.239 53.649 68.0124 53.649 68.0124L53.3076 67.4569L52.6559 66.29C52.6559 66.29 52.3827 65.6693 52.2338 65.3124C52.0786 64.9556 51.7962 63.9935 51.7962 63.9935C51.7962 63.9935 51.5883 63.1276 51.551 62.5628C51.489 61.5511 51.6255 60.9614 51.8955 59.9776C52.24 58.7021 53.0252 58.1683 53.3355 56.9021C53.4255 56.5359 53.4472 55.9028 53.261 55.9338C53.0841 55.968 53.0686 56.4614 52.9321 56.7966C52.4293 58.0504 51.7621 58.5997 51.399 59.9C51.1538 60.7783 51.0545 61.3028 51.0576 62.2121C51.0576 62.7335 51.039 62.6373 51.1724 63.5435C51.2252 63.8756 51.3059 64.0556 51.4052 64.3814C51.4765 64.6142 51.6659 65.0456 51.6659 65.0456C51.6659 65.0456 51.9265 65.6166 52.0165 66.0169C52.0445 66.1566 52.0786 66.2342 52.0693 66.3707C52.0507 66.6097 52.0941 66.6593 51.9793 66.8766C51.8365 67.1466 51.9234 67.3049 51.4641 67.4042C51.0545 67.4911 50.2227 67.218 50.2227 67.218C50.2227 67.218 46.7934 66.1783 44.6055 66.4793C44.171 66.5383 43.9383 66.6966 43.5038 66.6873C43.1065 66.6811 42.9048 66.3707 42.5076 66.4918C42.4269 66.5135 42.4021 66.5725 42.3276 66.619C41.7472 67.0225 42.191 67.6928 40.6641 67.3452C39.7269 67.1311 38.591 66.5569 38.7865 66.1969C39.0503 65.719 39.4041 65.6414 40.1427 65.3342C40.9341 65.0114 42.1259 65.1014 42.3586 65.0859C42.6441 65.0642 43.0569 64.8656 43.5659 64.85C44.4503 64.8345 44.6086 64.94 44.6086 64.94L46.1107 65.0735L48.9845 65.1076C48.9845 65.1076 49.4996 65.0704 49.7014 65.03C49.9093 64.9897 50.0707 64.5831 50.1824 64.3907C50.2941 64.1983 50.1762 63.9159 50.1762 63.9159L50.0893 63.7825L49.8162 63.3418L49.3103 62.4914L48.7486 61.3711C48.7486 61.3711 48.3824 60.5921 48.1869 60.08C47.9914 59.5711 47.8796 59.2825 47.7524 58.758C47.619 58.2149 47.5352 57.7773 47.5165 57.3428C47.4948 56.7159 47.4545 56.2318 47.6283 55.7197" fill="black"/>
<path d="M66.2956 54.6923C66.9007 53.9165 66.9597 53.1965 66.9938 52.1785C67.0218 51.4399 66.7425 50.3041 66.7425 50.3041L66.7052 50.2203C66.7052 50.2203 66.5997 50.0837 66.5345 50.2637C66.5438 50.4251 66.5656 50.5523 66.5656 50.5523L66.5997 52.0172C66.5997 52.0172 66.5531 52.7558 66.3018 53.5161C65.8797 54.801 64.7531 55.372 64.5918 55.8375C64.3125 56.6072 65.5756 55.6265 66.2987 54.6923" fill="white"/>
<path d="M59.9552 57.0634C59.9552 57.0634 59.707 57.1347 59.7039 57.3768C59.6976 57.622 59.7628 57.833 59.7566 58.1278C59.7504 58.5034 59.4059 58.9378 59.6294 59.0775C60.0111 59.3196 60.337 57.6158 60.2221 57.3644C60.1073 57.113 59.9925 57.0603 59.9583 57.0634" fill="white"/>
<path d="M55.6848 68.8721C55.6848 68.8721 55.6135 68.8349 55.4769 68.8877C55.3404 68.9404 55.3497 69.0832 55.3497 69.0832C55.3497 69.0832 55.3217 69.2352 55.4335 69.2508C55.5452 69.2694 55.7252 68.9994 55.7252 68.9683C55.7252 68.9373 55.6848 68.8752 55.6848 68.8752" fill="white"/>
<path d="M51.669 71.7272C51.669 71.7272 51.6286 71.7676 51.6628 71.7955C51.7 71.8296 51.7528 71.7893 51.7528 71.7893C51.7528 71.7893 52.4448 71.2462 52.8576 70.8676C53.2921 70.4579 53.9159 69.7565 53.9159 69.7565C53.9159 69.7565 53.9593 69.7038 53.9097 69.6572C53.86 69.6107 53.7421 69.6821 53.6428 69.7286C53.5559 69.7752 53.5062 69.8217 53.441 69.8745C53.3821 69.9303 53.1741 70.1414 53.1741 70.1414L52.6403 70.6596L52.3021 70.9762L51.9762 71.2896L51.8397 71.4448C51.8397 71.4448 51.8055 71.5038 51.7931 71.5193C51.7838 71.5379 51.7466 71.5814 51.7466 71.5814C51.7466 71.5814 51.6969 71.6279 51.6969 71.6434C51.6969 71.6559 51.6814 71.6683 51.6814 71.6838C51.6752 71.7024 51.6659 71.7241 51.6659 71.7241" fill="white"/>
<path d="M50.4711 72.5155C50.4711 72.5155 50.3966 72.4565 50.2787 72.5155C50.1607 72.5775 50.0335 72.7389 50.0242 72.7575C50.0118 72.7793 49.9497 72.8662 49.9931 72.9406C50.0366 73.0151 50.1855 72.9065 50.2104 72.9003C50.2321 72.9003 50.4276 72.7451 50.4276 72.7451C50.4276 72.7451 50.5424 72.6737 50.4711 72.5186" fill="white"/>
<path d="M48.1745 74.837C48.1745 74.837 48.0752 74.657 47.9479 74.7314C47.8207 74.8059 47.7493 74.8307 47.6314 74.9952C47.6128 75.0232 47.4855 75.1876 47.4607 75.2311C47.439 75.2714 47.3117 75.5135 47.5693 75.5321C48.0131 75.557 47.7214 75.2714 47.8735 75.1628C47.9976 75.0759 48.2273 75.1007 48.2304 75.0107C48.2304 74.9207 48.1745 74.8432 48.1745 74.8432" fill="white"/>
<path d="M40.3135 65.5544C40.3135 65.5544 40.0466 65.6196 40.028 65.7096C40.0062 65.8058 40.1831 65.8958 40.2111 65.902C40.2421 65.9082 40.3011 65.9765 40.478 65.8554C40.6518 65.7375 40.6456 65.6351 40.6456 65.6351C40.6456 65.6351 40.748 65.5141 40.3135 65.5513" fill="white"/>
<path d="M44.6366 65.4117C44.6366 65.4117 44.6366 65.3124 44.4473 65.3248C44.2549 65.3341 44.2145 65.3714 44.2114 65.3993C44.2052 65.4272 44.2207 65.4738 44.3914 65.4893C44.5652 65.4986 44.6335 65.4893 44.6397 65.4086" fill="white"/>
<path d="M48.7269 65.5328C48.3825 65.5328 48.4911 65.539 48.28 65.5514C47.8952 65.57 47.6873 65.5576 47.3087 65.5297C46.778 65.4955 45.9556 65.3621 45.9556 65.3621C45.9556 65.3621 45.8532 65.3372 45.8097 65.4055C45.7725 65.4676 45.909 65.6134 46.0332 65.6538C46.7066 65.8617 46.7438 65.8276 47.2032 65.8338C47.4576 65.8338 47.6004 65.8121 47.8549 65.7965C48.1776 65.7717 48.3266 65.8214 48.6773 65.7283C48.7704 65.7065 48.8573 65.5359 48.7269 65.5328" fill="white"/>
<path d="M51.0297 64.8501C51.0297 64.8501 50.9614 64.7694 50.8186 64.8408C50.679 64.909 50.5921 65.0611 50.5921 65.0611C50.5921 65.0611 50.5269 65.1666 50.6666 65.1511C50.8062 65.1325 50.9304 65.0704 50.9614 65.0518C50.9986 65.0301 51.1011 64.937 51.0297 64.8501" fill="white"/>
<path d="M49.0249 37.2044C49.0249 37.2044 49.9962 36.2951 50.6945 35.0879C51.1073 34.371 51.2873 32.6982 50.9335 33.1141C50.7721 33.3034 50.5797 34.1724 50.2724 34.8148C49.8349 35.7303 48.8976 37.0244 48.8976 37.0244C48.8976 37.0244 48.6959 37.4558 49.028 37.2044" fill="white"/>
<path d="M45.1362 39.5196C45.1362 39.5196 45.0338 39.6003 45.0804 39.7276C45.13 39.8579 45.3286 39.7617 45.3286 39.7617C45.3286 39.7617 45.7786 39.591 46.2504 39.5724C46.7221 39.5507 47.3769 39.6934 47.3769 39.6934C47.3769 39.6934 47.6904 39.7803 47.74 39.7989C47.7928 39.8207 47.9604 39.9014 47.9914 39.9138C48.0162 39.9262 48.1776 40.0038 48.2707 39.9231C48.3607 39.8393 47.7028 39.2403 47.0293 39.1503C45.909 38.9983 45.1735 39.4793 45.1735 39.4793L45.1393 39.5196" fill="white"/>
<path d="M40.5214 43.4641C40.6021 43.5324 40.9745 42.8186 41.2879 42.3686C41.5176 42.0397 41.9365 41.4872 41.9365 41.4872C41.9365 41.4872 42.1259 41.2328 41.8062 41.3755C41.6759 41.4345 41.3221 41.7045 41.0707 42.201C40.8596 42.6231 40.4407 43.399 40.5245 43.4641" fill="white"/>
<path d="M37.9362 40.3638C37.9362 40.3638 37.8555 40.64 38.1783 40.9845C38.5041 41.3321 38.5879 41.6176 38.7928 41.4097C38.8486 41.3538 38.591 40.8883 38.4607 40.758C38.3272 40.6307 38.231 40.5221 38.231 40.5221L38.1472 40.4538L38.0386 40.3949L37.9766 40.37C37.9766 40.37 37.961 40.3545 37.9362 40.3638" fill="white"/>
<path d="M36.8872 37.7197C36.8872 37.7197 36.5365 37.7849 36.4527 37.9556C36.3658 38.1263 36.8562 38.0239 36.8562 38.0239C36.8562 38.0239 37.182 38.0425 37.1882 37.9183C37.1944 37.7911 37.1479 37.7787 36.8872 37.7228" fill="white"/>
<path d="M31.3196 46.9431C31.1396 46.8903 31.1117 47.2441 31.0869 47.3558C31.0651 47.4707 31.1675 47.6972 31.2079 47.6972C31.2482 47.6972 31.391 47.4738 31.3972 47.3651C31.4034 47.2534 31.4748 46.9927 31.3165 46.9431" fill="white"/>
<path d="M37.1014 53.8111C37.1014 53.8111 36.7817 53.5566 36.7321 53.6591C36.6855 53.7584 36.9958 54.2053 36.9958 54.2053C36.9958 54.2053 37.0921 54.3511 37.2379 54.286C37.3838 54.2146 37.331 54.0532 37.331 54.0532C37.331 54.0532 37.2317 53.8453 37.1014 53.8111" fill="white"/>
<path d="M34.6869 46.3814C34.6869 46.3814 34.6062 46.3597 34.5751 46.459C34.5441 46.5583 34.5472 46.7166 34.5255 46.9121C34.5069 47.0642 34.5658 47.4676 34.5658 47.4676C34.5658 47.4676 34.5969 47.7873 34.662 47.9766C34.7303 48.1845 34.9165 48.4824 34.9165 48.4824C34.9165 48.4824 34.9848 48.6345 35.0717 48.6283C35.1555 48.619 35.1369 48.5197 35.1369 48.5197C35.1369 48.5197 34.87 47.4552 34.8607 47.3466C34.8296 46.9928 34.8296 46.5614 34.8296 46.5614V46.4962C34.8296 46.4962 34.8234 46.3814 34.69 46.3814" fill="white"/>
<path d="M35.1059 43.1382C35.1059 43.1382 34.96 43.1103 34.8234 43.3927C34.6869 43.6813 34.7148 43.7961 34.7272 43.8086C34.7365 43.821 34.8452 43.8179 35.019 43.5541C35.1927 43.2903 35.1524 43.191 35.1524 43.191C35.1524 43.191 35.1431 43.1382 35.1059 43.1382Z" fill="white"/>
<path d="M39.1621 46.0773C39.1621 46.0773 39.339 46.3442 39.0007 46.2822C38.6593 46.2201 37.9424 45.6553 37.6507 45.5032C37.3621 45.3511 36.8873 45.3015 37.0859 45.1246C37.1231 45.0935 37.1324 45.0656 37.1883 45.0625C37.2473 45.0625 37.4428 45.137 37.4552 45.1463C37.4645 45.1525 37.9704 45.3604 37.989 45.3666C38.0076 45.3728 38.29 45.4939 38.4917 45.6149C38.6935 45.7359 39.0193 45.9625 39.0193 45.9625L39.159 46.0804" fill="white"/>
<path d="M48.6121 54.2145C48.7052 54.5062 47.5352 53.5969 46.9114 53.1159C45.2511 51.8373 43.2214 49.218 43.4728 48.9883C43.6807 48.799 44.5155 49.9969 45.7352 51.319C47.0417 52.728 48.5562 54.0438 48.6121 54.2176" fill="white"/>
<path d="M53.4938 52.9606C53.1307 53.3485 53.0035 53.842 53.2114 54.2144C53.4162 54.5744 53.4783 53.6868 53.7048 53.4261C53.9004 53.1965 54.0214 53.2337 54.3441 53.0041C54.8935 52.6161 53.95 52.4672 53.4938 52.9606" fill="white"/>
<path d="M51.4176 44.6932C51.1693 44.6528 51.1755 45.0314 51.2096 45.3014C51.3772 46.5025 51.9141 47.4304 52.6372 48.3025C53.0748 48.8332 54.279 49.7828 54.4155 49.6307C54.4652 49.578 53.2703 48.6532 52.51 47.4676C51.97 46.6266 51.6845 45.9128 51.6162 45.2207C51.61 45.1339 51.6286 44.7335 51.4176 44.6994" fill="white"/>
<path d="M46.7625 26.8793C46.2194 27.1741 45.2821 27.4317 45.2821 27.4317C45.2821 27.4317 45.2387 27.5248 45.3597 27.5155C46.1635 27.4503 46.4707 27.351 46.9021 27.1617C47.3304 26.9755 47.6407 26.4634 47.6407 26.4634C47.6407 26.4634 47.8145 26.1438 47.4918 26.4075C47.3894 26.4882 47.0604 26.721 46.7625 26.8824" fill="white"/>
<path d="M53.2983 24.8154C53.2983 24.8154 53.1152 24.7751 52.9911 24.8527C52.8669 24.9302 52.9042 24.9923 52.9042 24.9923C52.9042 24.9923 53.0966 25.1382 53.2331 25.163C53.3697 25.1847 53.6614 25.312 53.6521 25.2127C53.6397 25.1133 53.4752 24.9302 53.4162 24.8837C53.3635 24.8309 53.3014 24.8185 53.3014 24.8185" fill="white"/>
<path d="M50.2228 30.4607C50.2538 30.5258 50.8031 30.3738 51.0142 30.2558C51.1786 30.1627 51.2438 29.8493 51.2438 29.8493C51.2438 29.8493 51.2904 29.5483 51.219 29.6631C50.9055 30.1751 50.1917 30.3924 50.2197 30.4576" fill="white"/>
<path d="M50.2041 29.0486C50.4245 28.6234 49.5958 29.4924 49.1738 29.7159C48.9162 29.8524 48.4941 30.0324 48.4941 30.0324C48.4941 30.0324 48.3824 30.1721 48.5376 30.1596C48.6927 30.1503 49.0869 30.2838 49.4065 30.0355C49.481 29.9765 49.8162 29.4924 49.8162 29.4924C49.8162 29.4924 50.0986 29.2503 50.2041 29.0517" fill="white"/>
<path d="M50.0769 30.8609C50.0955 30.9292 51.0266 30.9075 51.2593 30.8361C51.4424 30.7864 51.5448 30.4606 51.5448 30.4606C51.5448 30.4606 51.6566 30.1751 51.5604 30.2713C51.1383 30.7027 50.0614 30.7895 50.08 30.8609" fill="white"/>
<path d="M35.1214 39.3893C35.1214 39.3893 34.9818 39.3366 34.8049 39.6004C34.6311 39.861 33.8459 41.0528 33.9855 41.2297C34.15 41.4376 34.8297 40.1652 35.0376 39.9293C35.2455 39.6872 35.1618 39.4483 35.1618 39.4483C35.1618 39.4483 35.1618 39.3955 35.1214 39.3924" fill="white"/>
<path d="M52.1935 60.8558C52.1066 61.2499 52.209 62.0599 52.3456 62.2182C52.6776 62.6185 52.4728 61.5913 52.5225 61.2313C52.5628 60.8961 52.6032 60.7813 52.7707 60.4213C53.0687 59.7758 52.3704 60.0116 52.1966 60.8558" fill="white"/>
<path d="M49.3321 26.451C49.3321 26.451 49.0745 26.4572 48.8728 26.5689C48.668 26.6806 48.6183 26.8389 48.6183 26.8389C48.6183 26.8389 48.578 26.9537 48.6059 27.0127C48.6649 27.1462 48.9442 26.9444 49.1397 27.0127C49.298 27.0686 49.3725 27.1151 49.4935 27.261C49.599 27.3882 49.7852 27.5682 49.9001 27.4658C50.0211 27.3665 49.9745 27.1058 49.9745 27.1058C49.9745 27.1058 49.838 26.6837 49.658 26.5658C49.4749 26.4448 49.3321 26.451 49.3321 26.451Z" fill="white"/>
<path d="M45.04 29.4116C45.04 29.4116 44.8941 29.4333 44.9283 29.6102C44.9624 29.784 45.0555 29.7561 45.0555 29.7561C45.0555 29.7561 45.3565 29.6289 45.3379 29.4489C45.3162 29.2689 45.0369 29.4116 45.0369 29.4116" fill="white"/>
<path d="M42.9452 28.4714C42.9452 28.4714 42.7869 28.4776 42.6783 28.6732C42.5697 28.8687 42.5045 29.0704 42.5045 29.0704C42.5045 29.0704 42.4518 29.3249 42.5449 29.4056C42.638 29.4863 42.7373 29.2411 42.8707 29.1449C42.9514 29.089 42.998 29.0642 43.0818 29.0052C43.1935 28.9276 43.3766 29.027 43.3642 28.8004C43.3487 28.5707 43.1066 28.4652 42.9483 28.4745" fill="white"/>
<path d="M49.7169 26.032C49.7169 26.032 49.36 25.9792 49.3755 26.1189C49.3879 26.2461 49.5679 26.1716 49.6827 26.2213C49.7976 26.2741 49.872 26.2927 49.962 26.3765C50.0303 26.4354 50.021 26.5503 50.1017 26.5534C50.2165 26.5534 50.1917 26.5099 50.1917 26.5099C50.1917 26.5099 50.0893 26.2027 49.9527 26.1158C49.8193 26.0289 49.7138 26.032 49.7138 26.032" fill="white"/>
<path d="M53.6955 27.4689C53.6458 27.6644 53.6148 27.7296 53.6148 27.7296C53.6148 27.7296 53.5155 28.1237 53.9127 27.9779C54.31 27.832 54.1051 27.8941 54.3907 27.7544C54.6731 27.6148 54.6669 27.6924 54.8748 27.7017C54.9462 27.7017 54.9896 27.7079 55.0951 27.6862C55.1851 27.6644 55.1479 27.5589 54.9462 27.5062C54.7289 27.4503 54.4651 27.4627 54.1579 27.4596C53.9779 27.4596 53.7482 27.2734 53.6955 27.4658" fill="white"/>
<path d="M53.8724 26.0134C53.8724 26.0134 53.6924 25.9731 53.5652 26.0507C53.441 26.1282 53.4783 26.1903 53.4783 26.1903C53.4783 26.1903 53.6676 26.3393 53.8072 26.361C53.9438 26.3858 54.2355 26.51 54.2262 26.4107C54.2107 26.3113 54.0493 26.1282 53.9903 26.0817C53.9314 26.032 53.8724 26.0165 53.8724 26.0165" fill="white"/>
<path d="M54.5707 28.7507C54.5707 28.7507 54.3752 28.7103 54.2417 28.7848C54.1114 28.8593 54.1455 28.9182 54.1455 28.9182C54.1455 28.9182 54.3534 29.0579 54.4993 29.0796C54.6452 29.1013 54.9586 29.2193 54.9462 29.1231C54.9338 29.03 54.7569 28.8562 54.6979 28.8096C54.639 28.7631 54.5707 28.7507 54.5707 28.7507Z" fill="white"/>
<path d="M54.6327 29.7439C54.6327 29.7439 54.4248 29.6973 54.2851 29.7842C54.1455 29.868 54.1858 29.9363 54.1858 29.9363C54.1858 29.9363 54.4 30.0977 54.5551 30.1225C54.7103 30.1473 55.0424 30.2839 55.0269 30.1753C55.0145 30.0667 54.8282 29.8711 54.7631 29.8184C54.7041 29.7625 54.6327 29.747 54.6327 29.747" fill="white"/>
<path d="M54.7259 30.7122C54.7259 30.7122 54.5025 30.6594 54.3504 30.7556C54.1952 30.8518 54.2449 30.9294 54.2449 30.9294C54.2449 30.9294 54.4776 31.1094 54.6421 31.1374C54.8097 31.1653 55.1697 31.3174 55.1573 31.1963C55.1418 31.0753 54.94 30.8518 54.8687 30.7929C54.8035 30.7308 54.7259 30.7122 54.7259 30.7122Z" fill="white"/>
<path d="M54.7041 31.9069C54.7041 31.9069 54.4807 31.8604 54.3286 31.9535C54.1765 32.0466 54.2169 32.1241 54.2169 32.1241C54.2169 32.1241 54.4527 32.3041 54.6203 32.3321C54.7879 32.36 55.1479 32.5121 55.1324 32.391C55.1138 32.27 54.9152 32.0435 54.8469 31.9845C54.7755 31.9224 54.7041 31.9038 54.7041 31.9038" fill="white"/>
<path d="M54.5427 34.2406C54.5427 34.2406 54.3162 34.1909 54.1641 34.2871C54.012 34.3802 54.0586 34.4578 54.0586 34.4578C54.0586 34.4578 54.2914 34.6409 54.4558 34.6658C54.6234 34.6906 54.9865 34.8489 54.971 34.7247C54.9555 34.6037 54.7538 34.3802 54.6824 34.3182C54.6141 34.2561 54.5427 34.2375 54.5427 34.2375" fill="white"/>
<path d="M54.6918 33.0739C54.6918 33.0739 54.4342 33.0149 54.2542 33.1267C54.0804 33.2353 54.1331 33.3222 54.1331 33.3222C54.1331 33.3222 54.4031 33.5332 54.5956 33.5642C54.788 33.5953 55.2069 33.7722 55.1914 33.6356C55.1697 33.4929 54.94 33.2353 54.8593 33.167C54.7787 33.0956 54.6918 33.077 54.6918 33.077" fill="white"/>
<path d="M54.4311 35.299C54.4311 35.299 54.2449 35.2555 54.1176 35.3331C53.9904 35.4107 54.0307 35.4728 54.0307 35.4728C54.0307 35.4728 54.2231 35.6249 54.3597 35.6466C54.4994 35.6683 54.7942 35.7955 54.7818 35.6962C54.7663 35.5938 54.6018 35.4138 54.5459 35.3642C54.49 35.3114 54.4311 35.299 54.4311 35.299" fill="white"/>
<path d="M54.2541 36.3075C54.2541 36.3075 54.102 36.2734 53.9965 36.3386C53.8972 36.4037 53.9251 36.4534 53.9251 36.4534C53.9251 36.4534 54.0834 36.5775 54.1982 36.5961C54.31 36.6148 54.5613 36.7234 54.552 36.6365C54.5427 36.5558 54.4 36.4006 54.3565 36.3603C54.31 36.3199 54.2572 36.3075 54.2572 36.3075" fill="white"/>
<path d="M54.0369 37.2294C54.0369 37.2294 53.9004 37.1983 53.8042 37.2573C53.7142 37.3131 53.739 37.3628 53.739 37.3628C53.739 37.3628 53.8817 37.4745 53.9873 37.49C54.0897 37.5087 54.3131 37.6049 54.3038 37.5304C54.2976 37.4559 54.1735 37.3163 54.13 37.279C54.0866 37.2418 54.04 37.2325 54.04 37.2325" fill="white"/>
<path d="M53.8197 37.9866C53.8197 37.9866 53.68 37.9556 53.5869 38.0115C53.4907 38.0704 53.5187 38.117 53.5187 38.117C53.5187 38.117 53.6614 38.2318 53.7669 38.2442C53.8694 38.2597 54.0928 38.359 54.0835 38.2815C54.0773 38.207 53.9531 38.0704 53.9066 38.0332C53.8662 37.9959 53.8197 37.9866 53.8197 37.9866Z" fill="white"/>
<path d="M53.5559 38.8618C53.5559 38.8618 53.4442 38.8339 53.3666 38.8836C53.2921 38.9332 53.317 38.9705 53.317 38.9705C53.317 38.9705 53.4318 39.0605 53.5156 39.076C53.5994 39.0884 53.7794 39.166 53.7701 39.1039C53.7639 39.0449 53.6614 38.9332 53.6273 38.9022C53.5932 38.8711 53.5528 38.8649 53.5528 38.8649" fill="white"/>
<path d="M53.2424 39.6841C53.2424 39.6841 53.1462 39.6623 53.081 39.7027C53.0158 39.743 53.0344 39.7772 53.0344 39.7772C53.0344 39.7772 53.1338 39.8548 53.2051 39.8641C53.2765 39.8765 53.4317 39.9448 53.4255 39.892C53.4193 39.8392 53.3324 39.743 53.3044 39.7182C53.2703 39.6934 53.2424 39.6841 53.2424 39.6841" fill="white"/>
<path d="M52.9165 40.4631C52.9165 40.4631 52.8172 40.4414 52.752 40.4817C52.69 40.5221 52.7117 40.5531 52.7117 40.5531C52.7117 40.5531 52.8079 40.6307 52.8793 40.6431C52.9538 40.6524 53.1058 40.7207 53.0996 40.671C53.0934 40.6152 53.0065 40.5221 52.9786 40.4942C52.9476 40.4693 52.9165 40.46 52.9165 40.46" fill="white"/>
<path d="M31.8224 44.4325C31.8224 44.4325 31.661 44.746 31.7417 44.9198C31.8224 45.0935 32.0396 44.6435 32.0396 44.6435C32.0396 44.6435 32.2662 44.1935 32.1731 44.1129C32.08 44.0291 32.0272 44.2618 31.8224 44.4325" fill="white"/>
<path d="M54.7569 84.8859V84.2746C54.7569 82.8842 55.4613 82.6111 57.5127 82.6018C59.4027 82.6111 60.07 82.8501 60.07 84.048V88.6784H60.7682V89.7211H56.1503C55.1789 89.7211 54.5427 89.0539 54.5427 88.2315V87.2942C54.5427 86.4842 54.9555 85.7797 56.4017 85.7735H58.2048V84.3646C58.2048 83.629 58.1551 83.5422 57.4165 83.5422H57.4103C56.5258 83.5422 56.4669 83.657 56.4669 84.3646V84.8891H54.7538M56.8951 86.5494C56.532 86.5494 56.3179 86.8411 56.3179 87.2042V88.098C56.3179 88.458 56.4731 88.7466 56.8951 88.7497H57.5469C57.9038 88.7497 58.1986 88.638 58.1986 88.098L58.2048 86.5494H56.8982H56.8951Z" fill="black"/>
<path d="M50.3655 84.3428V82.7259H47.7897V83.6879H48.4755V88.6721H47.7897V89.7179H51.0142V88.6721H50.3624V86C50.3624 85.7517 51.88 83.8338 51.88 84.0542V86.7076H53.6645V83.7221C53.6645 83.0393 53.2176 82.5986 52.4045 82.5986C51.4362 82.5986 50.7814 83.8152 50.3624 84.3428" fill="black"/>
<path d="M70.8949 88.6658V82.7258H68.2662V83.6879H69.0018V88.6658H68.2662V89.7179H71.5869V88.6658H70.8949Z" fill="black"/>
<path d="M43.7397 84.3428V82.7259H41.1638V83.6879H41.8497V88.6721H41.1638V89.7179H44.3883V88.6721H43.7397V86C43.7397 85.7517 45.2573 83.8338 45.2573 84.0542V86.7076H47.0386V83.7221C47.0386 83.0393 46.5949 82.5986 45.7786 82.5986C44.8135 82.5986 44.1586 83.8152 43.7366 84.3428" fill="black"/>
<path d="M40.1799 87.4277H38.3737V87.9522C38.3737 88.6629 38.2558 88.6939 37.3744 88.7032H37.362C36.3534 88.7094 36.4093 88.607 36.4217 87.9522V86.7108H40.1799V84.0108C40.1799 83.0332 39.4413 82.6236 37.4924 82.6143H37.2131C35.1089 82.6236 34.5503 83.1046 34.5503 84.3118V88.2625C34.5503 89.5939 35.3355 89.8174 37.2503 89.8701H37.4582C39.5499 89.8236 40.1768 89.6777 40.1768 88.4363V87.4246M36.4372 84.107C36.4372 83.7408 36.5489 83.5577 36.9679 83.5515H37.7593C38.0882 83.5515 38.2682 83.6974 38.2682 83.9581V85.9815H36.4341V84.1039L36.4372 84.107Z" fill="black"/>
<path d="M69.942 81.2889V80.0227" stroke="black" stroke-width="3.01" stroke-miterlimit="10"/>
<path d="M64.0455 84.3428V82.7259H61.4666V83.6879H62.1524V88.6721H61.4666V89.7179H64.691V88.6721H64.0424V86C64.0424 85.7517 65.5569 83.8338 65.5569 84.0542V86.7076H67.3445V83.7221C67.3445 83.0393 66.8945 82.5986 66.0783 82.5986C65.1162 82.5986 64.4614 83.8152 64.0424 84.3428" fill="black"/>
<path d="M32.3004 86.3195V85.3854H31.2949V88.675H33.0359V89.7178H27.9338V88.675H29.29V81.2888H28.2256V80.0195H67.959V81.2888H31.2949V84.2557H32.3004V83.3775H33.4549V86.3195H32.3004Z" fill="black"/>
<path d="M70.87 79.9731H68.9738V81.2238H70.87V79.9731Z" fill="black"/>
</g>
<defs>
<clipPath id="clip0_1406_86538">
<rect width="56.0824" height="90" fill="white" transform="translate(22 5)"/>
</clipPath>
</defs>
</svg>
