<svg width="100" height="100" viewBox="0 0 100 100" fill="none" xmlns="http://www.w3.org/2000/svg">
<g clip-path="url(#clip0_1108_1049)">
<path d="M34.5105 47.4496C32.784 46.4677 24.9831 45.9735 19.1461 45.3661C12.0899 44.6324 3.06764 43.842 3.06764 43.842C6.21584 46.8814 7.88792 47.7109 11.0601 48.4359C13.8643 49.0782 22.5839 49.5092 29.9275 49.8206C31.863 49.9011 32.0437 50.9614 32.0437 50.9614L17.6765 50.6566C19.882 51.423 24.2734 52.6814 27.4281 53.2409C29.5465 53.6176 33.7245 53.4478 35.3683 53.3498C37.0142 53.2518 37.4954 54.4166 37.4954 54.4166L32.8362 54.7562C32.8362 54.7562 34.5453 55.2896 37.5781 56.056C39.9077 56.646 42.9579 57.125 42.9579 57.125C38.3292 53.5588 37.1427 48.9453 34.5105 47.4474" fill="#231815"/>
<path d="M60.641 45.218C60.5343 45.8755 59.3978 49.899 56.9789 52.8098C54.2618 56.0843 51.0505 57.874 49.9989 58.4596C48.9473 57.874 45.736 56.0843 43.0167 52.8098C40.6 49.899 39.4614 45.8755 39.3569 45.218C39.248 44.5562 39.5855 43.9618 40.4193 43.4915C41.9912 42.6098 48.3551 40.6851 49.9989 40.6808C51.6427 40.6851 58.0066 42.6076 59.5785 43.4915C60.4124 43.9596 60.7498 44.5562 60.641 45.218ZM62.3805 42.072C60.5887 42.072 53.3126 39.0044 49.9989 39C46.6852 39.0044 39.4091 42.072 37.6173 42.072C33.1606 42.072 0 40.4827 0 40.4827C1.03198 41.9936 1.68078 42.1852 2.57778 42.4334C4.23244 42.8884 25.0637 44.5126 30.4761 45.1375C35.1505 45.6774 36.3066 46.213 37.5672 47.9765C39.1631 50.2059 40.931 55.8405 49.9989 60.1622C59.0669 55.8383 60.8347 50.2059 62.4306 47.9765C63.6934 46.213 64.8473 45.6752 69.5217 45.1375C74.9341 44.5126 95.7654 42.8884 97.42 42.4334C98.3192 42.1852 98.9658 41.9914 99.9978 40.4827C99.9978 40.4827 66.8372 42.072 62.3783 42.072" fill="#231815"/>
<path d="M65.4895 47.4496C67.216 46.4677 75.0169 45.9735 80.8539 45.3661C87.9101 44.6324 96.9324 43.842 96.9324 43.842C93.7842 46.8814 92.1121 47.7109 88.9399 48.4359C86.1335 49.0782 77.4139 49.5092 70.0725 49.8206C68.1348 49.9011 67.9563 50.9614 67.9563 50.9614L82.3235 50.6566C80.1158 51.423 75.7266 52.6814 72.5719 53.2409C70.4535 53.6176 66.2755 53.4478 64.6317 53.3498C62.988 53.2518 62.5046 54.4166 62.5046 54.4166L67.1638 54.7562C67.1638 54.7562 65.4525 55.2896 62.4219 56.056C60.0923 56.646 57.0421 57.125 57.0421 57.125C61.6708 53.5588 62.8573 48.9453 65.4895 47.4474" fill="#231815"/>
<path d="M43.2344 46.9032L43.4913 47.0098C43.5653 47.0425 43.5958 47.0795 43.5958 47.1688V47.7566C43.4848 47.8132 43.3367 47.8633 43.1713 47.8568C42.6683 47.8372 42.3004 47.4322 42.3004 46.8444C42.3004 46.2565 42.6313 45.795 43.2018 45.795C43.3433 45.795 43.6568 45.8255 43.9812 46.0911L44.0988 45.66C43.7134 45.4967 43.4848 45.4575 43.1909 45.4445C42.3744 45.4249 41.693 45.8821 41.693 46.8487C41.693 47.7152 42.3004 48.2095 43.0994 48.2095C43.6894 48.2095 44.0465 48.0135 44.1314 47.9439V46.7464H43.2954L43.2344 46.8988V46.9032ZM49.0584 47.3081L47.641 45.5185H47.0815L47.014 45.6752L47.1316 45.7318C47.2165 45.7776 47.2361 45.8211 47.2361 45.9017V48.155H47.6519V46.446L49.0105 48.155H49.4764V45.5163H49.0584V47.3059V47.3081ZM52.0346 45.8538L51.9431 45.5185H50.0642L50.0033 45.6752L50.1208 45.7318C50.1992 45.771 50.2188 45.8211 50.2188 45.9082V48.155H52.0367V47.8132H50.8023V46.9532H51.8691V46.6245H50.8023V45.8516H52.0367L52.0346 45.8538ZM54.78 45.6752L54.8976 45.7318C54.9825 45.7776 55.0021 45.8211 55.0021 45.9082V48.155H55.5855V45.5163H54.8497L54.7822 45.6731L54.78 45.6752ZM53.6914 46.6201C53.3648 46.4503 53.023 46.3545 53.023 46.0584C53.023 45.9125 53.1645 45.7928 53.441 45.7928C53.7175 45.7928 53.994 45.893 54.227 45.9953L54.301 45.6034C54.0789 45.5272 53.7981 45.464 53.4846 45.464C52.8031 45.464 52.4482 45.7667 52.4482 46.1847C52.4482 46.6027 52.7226 46.8117 53.1275 47.0011C53.4846 47.1666 53.7807 47.2733 53.7807 47.5324C53.7807 47.7283 53.6261 47.8546 53.3256 47.8546C53.0448 47.8546 52.7422 47.7544 52.5092 47.6521L52.4657 48.1093C52.5767 48.1398 53.0121 48.216 53.3452 48.216C53.8917 48.216 54.3816 47.9504 54.3816 47.4692C54.3816 46.9881 54.0354 46.8052 53.6914 46.6223M46.6156 45.8538L46.5241 45.5185H44.6452L44.5821 45.6752L44.6997 45.7318C44.778 45.771 44.7976 45.8211 44.7976 45.9082V48.155H46.6156V47.8132H45.3811V46.9532H46.4501V46.6245H45.3811V45.8516H46.6156V45.8538ZM57.4775 46.6201C57.1531 46.4503 56.8091 46.3545 56.8091 46.0584C56.8091 45.9125 56.9506 45.7928 57.2271 45.7928C57.5036 45.7928 57.7801 45.893 58.0131 45.9953L58.085 45.6034C57.8629 45.5272 57.582 45.464 57.2685 45.464C56.5871 45.464 56.2126 45.7667 56.2126 46.1847C56.2126 46.6027 56.5065 46.8117 56.9114 47.0011C57.2685 47.1666 57.5646 47.2733 57.5646 47.5324C57.5646 47.7283 57.41 47.8546 57.1096 47.8546C56.8265 47.8546 56.5261 47.7544 56.2931 47.6521L56.2496 48.1093C56.3606 48.1398 56.7939 48.216 57.127 48.216C57.6735 48.216 58.1655 47.9504 58.1655 47.4692C58.1655 46.9881 57.8193 46.8052 57.4753 46.6223" fill="#231815"/>
</g>
<defs>
<clipPath id="clip0_1108_1049">
<rect width="100" height="21.1644" fill="white" transform="translate(0 39)"/>
</clipPath>
</defs>
</svg>
