<svg width="103" height="100" viewBox="0 0 103 100" fill="none" xmlns="http://www.w3.org/2000/svg">
<path d="M52.9962 75.0425C80.614 75.0425 103 63.6166 103 49.5175C103 35.4183 80.614 24 52.9962 24C25.3784 24 3 35.426 3 49.5251C3 63.6242 25.3936 75.0502 52.9962 75.0502V75.0425ZM62.4058 62.5397C61.5886 64.4567 60.145 68.5734 56.8532 70.2155C55.8603 70.6967 54.623 70.9411 53.5003 70.964C53.2559 70.9869 53.0878 70.964 53.0115 70.964C43.9608 70.964 35.5136 69.7496 28.4105 67.6416C27.8912 67.4889 26.7302 67.2063 26.7302 66.5036C26.7302 66.1828 26.8983 65.9384 27.135 65.7017C27.242 65.5947 27.3947 65.4802 27.5857 65.3045C29.2354 63.9068 34.261 60.3018 43.663 56.7198C46.9701 55.4672 51.0944 53.8862 55.425 52.9773C57.9759 52.4427 67.3856 51.0144 62.4058 62.5397ZM87.6788 36.8084C87.8469 36.4876 88.0913 36.2279 88.5113 36.205C88.7558 36.1744 89.0613 36.2355 89.5424 36.5334C95.4234 40.146 98.8986 44.6293 98.8986 49.5022C98.8986 58.316 87.5566 65.8697 71.319 69.1845C70.2726 69.3907 69.5852 69.3907 69.3484 69.1234C69.188 68.9477 69.1422 68.6727 69.3484 68.329C69.4477 68.1381 69.5623 67.9853 69.7761 67.7409C78.6206 57.3461 85.3646 42.0249 87.2588 37.5874C87.3962 37.2972 87.549 36.9993 87.6712 36.8084H87.6788ZM43.747 36.4647C44.5718 34.5553 46.0077 30.4309 49.3072 28.7888C50.3077 28.2924 51.545 28.0709 52.6372 28.0327H53.1489C62.2149 28.0327 70.6545 29.2624 77.7804 31.3933C78.2998 31.546 79.4378 31.7599 79.4378 32.4931C79.4378 32.8291 79.2621 33.0736 79.0177 33.3027C78.9184 33.4172 78.7733 33.5394 78.5671 33.6998C76.9097 35.0899 71.9071 38.6949 62.5051 42.2769C59.198 43.5677 55.0507 45.1182 50.7354 46.027C48.1845 46.5617 38.7748 47.9899 43.7546 36.4647H43.747ZM34.704 29.8505C35.758 29.6366 36.5599 29.6366 36.7891 29.9116C36.9418 30.0719 37.0029 30.3545 36.7891 30.6982C36.6821 30.8815 36.5676 31.0343 36.3613 31.294C27.5169 41.6812 20.7881 57.01 18.8864 61.4246C18.7336 61.7377 18.5885 62.0432 18.4816 62.2418C18.283 62.555 18.0615 62.7994 17.6338 62.8299C17.4123 62.8299 17.0915 62.7764 16.6027 62.4862C10.7446 58.8812 7.1167 54.3826 7.1167 49.5175C7.1167 40.7189 18.4816 33.1347 34.704 29.8428V29.8505Z" fill="#004F9E"/>
</svg>
