<svg width="100" height="100" viewBox="0 0 100 100" fill="none" xmlns="http://www.w3.org/2000/svg">
<g clip-path="url(#clip0_1118_1003)">
<path fill-rule="evenodd" clip-rule="evenodd" d="M77.2201 57.4193C79.1506 57.5551 79.551 58.4846 79.551 58.4846C81.2241 61.4304 85.4211 63.0177 85.4211 63.0177C82.7542 61.4805 80.8237 58.0842 80.8237 58.0842C79.5581 56.2181 76.4908 56.2181 76.4908 56.2181H74.689C72.3581 56.2181 70.0915 55.2886 70.0915 55.2886C71.8504 57.1118 74.6032 57.2477 74.6032 57.2477L77.2272 57.4264L77.2201 57.4193Z" fill="black"/>
<path fill-rule="evenodd" clip-rule="evenodd" d="M89.3894 64.1259C88.0309 63.5038 86.3078 63.368 86.3078 63.368C87.9523 63.9471 88.5314 64.4333 88.5314 64.4333C89.7755 65.1912 88.9318 66.5211 88.9318 66.5211C87.8808 68.3873 83.748 67.4506 83.748 67.4506C88.1453 70.3821 89.99 68.1871 89.99 68.1871C91.1269 66.8286 90.8552 66.1636 90.5477 65.3199C90.5477 65.3199 94.5446 66.6069 98.6844 62.7888C98.6844 62.7888 94.2371 66.3424 89.3966 64.1259H89.3894Z" fill="black"/>
<path fill-rule="evenodd" clip-rule="evenodd" d="M13.9568 32.8232C13.9568 32.8232 11.3542 33.1307 10.1101 33.1092C10.1101 33.1092 9.84555 33.1521 9.84555 33.3309C9.84555 33.3309 9.93135 33.6455 10.4891 33.6455C10.4891 33.6455 12.7985 33.5811 13.9568 32.8232Z" fill="black"/>
<path fill-rule="evenodd" clip-rule="evenodd" d="M72.0077 61.3518L67.5032 61.3232C58.9232 61.2446 56.6852 53.5154 56.6852 53.5154C55.5627 51.0987 53.0173 51.2489 53.0173 51.2489C52.8242 51.2489 52.6312 51.2417 52.4381 51.2489C43.994 51.6707 41.2269 50.9986 41.2269 50.9986C39.5181 50.5195 37.5447 49.8117 35.6642 48.7821C35.6642 48.7821 36.0646 46.873 35.2638 45.2714C35.2638 45.2714 38.3741 46.5155 41.2198 45.8506C41.2198 45.8506 36.6438 44.6923 33.3977 42.3828C33.3977 42.3828 34.9564 46.873 33.6622 48.5604C33.6622 48.5604 32.8185 51.6707 25.0822 49.1396C25.0822 49.1396 21.879 47.8955 19.3908 47.8955C19.3908 47.8955 17.3888 47.9813 17.3888 49.0037C17.3888 49.0037 17.3888 49.4899 17.875 49.7116C17.875 49.7116 18.1324 51.2489 16.7739 51.8137C14.5002 52.0497 14.536 49.9332 14.536 49.9332C15.1151 45.8434 20.449 46.0222 20.449 46.0222C25.025 46.0222 32.1393 47.3092 32.1393 47.3092C26.7625 46.0651 25.118 44.728 25.118 44.728C22.8514 43.3481 23.2947 39.7087 23.2947 39.7087C21.164 42.7332 22.8514 44.8639 22.8514 44.8639C17.1171 44.6851 15.4726 46.2867 15.4726 46.2867C12.6698 48.4675 13.6922 50.9986 13.6922 50.9986C14.3787 52.0854 15.108 52.3786 15.7229 52.3571C15.7372 52.3571 15.7515 52.3571 15.7658 52.3571C18.2754 52.3285 18.7902 50.0548 18.6687 49.5757C18.6687 49.5757 18.5829 49.1324 18.9833 49.0395C18.9833 49.0395 20.0486 48.5962 23.0731 49.7044C23.0731 49.7044 27.9637 51.9281 30.7593 51.9281C30.7593 51.9281 33.7838 51.7494 34.892 50.4195C34.892 50.4195 37.4589 51.4562 41.041 51.8709C41.041 51.8709 44.5517 52.1641 50.336 51.8995C51.766 51.8352 52.4667 52.0497 52.4667 52.0497C55.0622 52.4358 55.4697 53.6513 55.4697 53.6513C55.4697 53.6513 60.0672 63.1179 69.1334 62.8891L73.4163 62.9105C77.2844 62.9105 82.4467 66.7072 82.4467 66.7072C81.3814 65.9064 79.2006 63.8186 79.2006 63.8186C76.4407 61.3733 71.9934 61.3518 71.9934 61.3518H72.0077Z" fill="black"/>
<path fill-rule="evenodd" clip-rule="evenodd" d="M100 60.8583C99.9714 59.3711 98.3484 59.4927 98.3484 59.4927C97.9265 59.5427 96.5322 60.3221 95.6385 60.8369L95.3739 61.0085C93.0144 62.2311 89.7326 61.0943 89.7326 61.0943C85.3782 59.364 81.5744 56.9973 81.5744 56.9973C81.5744 56.9973 74.1098 52.5643 67.6748 49.3325C67.6748 49.3325 59.6454 45.1641 48.8774 40.5023C48.8703 40.5023 28.3355 30.9999 13.1989 30.9999C13.1989 30.9999 5.35535 30.8998 2.7027 33.9171C2.7027 33.9171 2.4024 34.3819 2.46675 34.7823C2.46675 34.7823 2.5025 34.9181 2.4024 34.9968C2.4024 34.9968 1.23695 35.7618 0.285997 36.8629C0.285997 36.8629 -0.278854 37.4135 0.185897 38.1642C0.185897 38.1642 0.521947 38.7005 0.822247 39.1009C0.958098 39.2796 1.7589 40.2735 2.9315 40.1805C2.9315 40.1805 3.26755 40.1662 3.432 40.2663C3.432 40.2663 3.7323 40.5309 4.09695 40.6667H4.6475C4.6475 40.6667 4.7619 40.6524 4.78335 40.5523C4.78335 40.5523 4.7476 40.252 4.68325 40.0518C4.68325 40.0518 4.36865 39.6371 4.49735 39.1366C4.49735 39.1366 4.6332 38.3001 5.148 37.7066C5.148 37.7066 5.71285 37.1704 6.3778 37.6566C6.3778 37.6566 7.64335 38.7577 6.9927 40.0733C6.9927 40.0733 6.45645 41.0743 5.8773 41.0743C5.8773 41.0743 5.5913 41.1601 5.291 40.8741L4.9049 40.824C4.9049 40.824 4.7905 40.824 4.7905 40.9241L4.8048 41.2101C4.8048 41.2101 4.8048 41.3746 4.8906 41.4604C4.8906 41.4604 5.04075 41.6463 4.8763 41.8751C4.8763 41.8751 4.51165 42.2111 4.6904 42.6902C4.6904 42.6902 5.02645 44.0916 6.15615 44.0916C7.15715 44.1273 7.98656 43.1764 7.98656 43.1764C10.1387 40.8598 13.1846 40.6739 13.1846 40.6739C17.1028 40.4093 21.8719 44.206 21.8719 44.206C18.5042 39.7229 14.9578 39.4226 14.9578 39.4226C14.0712 39.2725 13.7209 38.3573 13.7209 38.3573C12.5912 36.2766 11.3042 36.1765 11.3042 36.1765C11.9405 37.0417 11.869 38.2286 11.869 38.2286C11.869 40.4093 8.60146 40.7311 8.60146 40.7311C7.30015 43.2979 6.2062 43.1478 6.2062 43.1478C5.62705 43.1478 5.46975 42.8117 5.46975 42.8117C5.3339 42.6115 5.5627 42.4328 5.5627 42.4328C5.9202 42.2111 6.2491 41.918 6.2491 41.918C8.47276 40.2091 8.49421 38.2715 8.49421 38.2715C8.20821 36.0264 6.31345 35.9835 6.31345 35.9835C5.4483 35.9835 5.06935 36.5197 5.06935 36.5197C4.7333 36.9201 3.86815 38.4717 3.86815 38.4717C3.22465 39.537 2.6455 39.3797 2.6455 39.3797C1.93765 39.4226 1.4014 38.7577 1.4014 38.7577C1.3728 38.7291 1.35135 38.7076 1.3299 38.679C1.0582 38.343 1.26555 37.9569 1.26555 37.9569C2.10925 36.5984 3.8896 36.2695 3.8896 36.2695C3.95395 36.2552 4.01115 36.2337 4.06835 36.2123C4.06835 36.2123 4.22565 36.1765 4.4044 36.1193H4.39725C6.69955 35.2971 6.8926 34.0887 6.8926 34.0887C6.11325 33.6454 5.38395 33.6669 5.38395 33.6669C3.98255 33.7527 3.5178 35.1326 3.5178 35.1326L3.18175 34.7823C3.18175 34.7823 3.0316 34.5964 3.26755 34.3819C3.26755 34.3819 4.3186 33.0877 8.16531 32.5086C8.16531 32.5086 11.3185 31.9723 15.4083 32.4871C15.4083 32.4871 12.8772 35.1326 9.83126 34.0244C9.83126 34.0244 9.78836 35.0039 12.4553 35.4901C12.4553 35.4901 15.2581 35.7761 18.7902 39.1581C18.7902 39.1581 17.8607 37.1132 14.8363 34.8037C14.8363 34.8037 14.5932 34.6464 14.8148 34.4248C14.8148 34.4248 16.1233 32.9161 17.8822 32.9376C17.8822 32.9376 26.9698 33.4023 32.0821 38.7362C32.0821 38.7362 31.9033 37.8496 31.124 36.5555C31.124 36.5555 30.9667 36.3982 31.0596 36.2909C31.0596 36.2909 31.124 36.0693 32.0177 36.248C32.0177 36.248 35.2638 36.7843 42.7928 39.537L50.951 42.4471C50.951 42.4471 53.7967 43.491 55.3768 44.1988C55.3768 44.1988 52.1951 44.0916 50.5077 44.9567C50.5077 44.9567 50.4361 44.9996 50.4719 45.0568C50.4719 45.0568 50.4862 45.114 50.6292 45.0926C50.6292 45.0926 53.3033 44.3561 55.8845 45.493C55.8845 45.493 58.53 46.5655 60.6106 48.2314C60.6106 48.2314 62.0263 49.4612 62.9272 50.4622C62.9272 50.4622 65.0293 52.4285 67.4603 53.8299C67.4603 53.8299 65.4941 51.9637 63.8639 50.2263C63.8639 50.2263 61.533 47.4235 60.4605 46.494C60.4605 46.494 68.5114 50.2692 75.7615 54.359C77.0628 55.0954 81.2598 57.5264 81.2598 57.5264C85.3353 60.0575 89.325 61.6663 89.325 61.6663C92.9715 63.3108 95.9888 61.5805 95.9888 61.5805L96.1318 61.5161C98.0838 60.5008 98.5342 60.8226 98.5342 60.8226C99.4995 61.1872 99.2207 62.1882 99.2207 62.1882C100.064 61.3231 99.9857 60.8512 99.9857 60.8512L100 60.8583ZM5.7343 34.4462C5.7343 34.4462 5.1766 35.3114 4.1756 35.2041C4.1756 35.2041 4.4187 34.1388 5.7343 34.4462ZM3.18175 35.5187C3.19605 35.7046 2.98155 35.769 2.98155 35.769C1.9305 36.4053 1.06535 37.3849 1.06535 37.3849C0.915198 37.5493 0.815097 37.4707 0.815097 37.4707C0.629197 37.3062 0.815097 37.0846 0.815097 37.0846C1.6302 36.1837 2.7456 35.4544 2.7456 35.4544C3.1317 35.3042 3.18175 35.5187 3.18175 35.5187Z" fill="black"/>
</g>
<defs>
<clipPath id="clip0_1118_1003">
<rect width="100" height="37.988" fill="white" transform="translate(0 31)"/>
</clipPath>
</defs>
</svg>
