<svg width="100" height="100" viewBox="0 0 100 100" fill="none" xmlns="http://www.w3.org/2000/svg">
<g clip-path="url(#clip0_1108_1062)">
<path fill-rule="evenodd" clip-rule="evenodd" d="M25.058 50.3089C25.058 59.5094 20.8187 63.02 12.3468 63.02C3.87494 63.02 0 58.2972 0 51.0309V46.4273H9.31973V50.183C9.31973 52.7266 9.31973 55.1443 12.1017 55.1443C14.8838 55.1443 14.6453 51.8787 14.6453 50.4215V29H25.058V50.3089Z" fill="#231F20"/>
<path fill-rule="evenodd" clip-rule="evenodd" d="M34.3843 47.401C34.7486 44.8575 36.1992 43.4069 38.6236 43.4069C40.8028 43.4069 42.3793 45.2218 42.3793 47.401H34.3909H34.3843ZM50.4802 52.2431C50.4802 42.7975 46.6053 37.4719 37.8883 37.4719C30.8671 37.4719 26.2635 43.1618 26.2635 50.1831C26.2635 58.2973 31.5891 62.8942 38.6103 62.8942C43.6974 62.8942 48.2944 60.4699 49.9901 55.2702H42.121C41.3923 56.3565 39.9417 56.9659 38.6103 56.9659C35.9475 56.9659 34.4969 55.0317 34.2518 52.2431H50.4736H50.4802Z" fill="#231F20"/>
<path fill-rule="evenodd" clip-rule="evenodd" d="M59.1972 47.401C59.5615 44.8575 61.0121 43.4069 63.4364 43.4069C65.6157 43.4069 67.1922 45.2218 67.1922 47.401H59.2038H59.1972ZM75.2997 52.2431C75.2997 42.7975 71.4248 37.4719 62.7078 37.4719C55.6866 37.4719 51.083 43.1618 51.083 50.1831C51.083 58.2973 56.4086 62.8942 63.4298 62.8942C68.3911 62.8942 73.1139 60.4699 74.8096 55.2702H66.9404C66.2118 56.3565 64.7612 56.9659 63.4298 56.9659C60.767 56.9659 59.3164 55.0317 59.0713 52.2431H75.2931H75.2997Z" fill="#231F20"/>
<path fill-rule="evenodd" clip-rule="evenodd" d="M84.2618 50.1831C84.2618 47.2752 84.8645 44.2481 87.8916 44.2481C90.9187 44.2481 91.6473 47.2752 91.6473 50.1831C91.6473 53.0909 90.9187 56.118 87.8916 56.118C84.8645 56.118 84.2618 52.9717 84.2618 50.1831ZM76.1476 70.0413H84.5002V59.6286H84.6195C85.8316 61.6887 88.1301 62.8942 90.6736 62.8942C98.0592 62.8942 99.9934 55.9922 99.9934 50.3023C99.9934 44.2481 97.0855 37.4719 90.7929 37.4719C86.6795 37.4719 85.3481 39.1676 84.2551 40.7375V38.0747H76.141V70.0347L76.1476 70.0413Z" fill="#231F20"/>
</g>
<defs>
<clipPath id="clip0_1108_1062">
<rect width="100" height="41.0413" fill="white" transform="translate(0 29)"/>
</clipPath>
</defs>
</svg>
