<svg width="100" height="100" viewBox="0 0 100 100" fill="none" xmlns="http://www.w3.org/2000/svg">
<path d="M58.0184 60.5516C58.0184 60.7688 58.1178 60.8774 58.2171 60.8774C58.3164 60.8774 58.4157 60.8774 58.4157 60.7688L89.6013 38.5739C90.1151 38.1514 90.7404 37.9227 91.3832 37.9223H98.2128C98.4517 37.9014 98.6919 37.9374 98.9167 38.0279C99.1416 38.1185 99.3458 38.2613 99.5153 38.4466C99.6847 38.6319 99.8153 38.8552 99.8981 39.1012C99.9809 39.3471 100.014 39.6097 99.9947 39.8709V54.1628C99.9947 55.8942 99.5975 56.8715 98.2128 57.8428L89.8992 63.2724C89.8601 63.3137 89.8131 63.3449 89.7615 63.3636C89.71 63.3824 89.6552 63.3883 89.6013 63.381C89.502 63.381 89.4027 63.2724 89.4027 62.9466V46.2597C89.4027 46.0425 89.3034 45.9339 89.2041 45.9339C89.1048 45.9339 89.0055 45.934 89.0055 46.0425L66.2383 62.283C65.7099 62.661 65.0874 62.8506 64.4564 62.826H49.4014C49.1626 62.8469 48.9224 62.8109 48.6975 62.7203C48.4727 62.6298 48.2685 62.487 48.099 62.3017C47.9296 62.1164 47.7989 61.893 47.7162 61.6471C47.6334 61.4012 47.6004 61.1386 47.6196 60.8774V40.3053C47.6196 40.1967 47.5203 39.9795 47.421 39.9795C47.3217 39.9795 47.2224 39.9795 47.2224 40.0881L32.1784 50.0484C31.9798 50.157 31.9798 50.2656 31.9798 50.2656C31.9798 50.3741 31.9798 50.3742 32.0791 50.4827L42.7704 62.1744C42.8752 62.294 42.9444 62.4454 42.969 62.6088C42.969 62.7174 42.7704 62.826 42.6711 62.826H32.9673C32.6522 62.8686 32.3326 62.8425 32.0267 62.7493C31.7209 62.6561 31.435 62.4977 31.1854 62.283L24.6537 55.1401C24.5544 55.0315 24.5544 55.0315 24.4551 55.0315C24.3558 55.0315 24.3558 55.0315 24.2565 55.1401L13.3666 62.283C12.8382 62.661 12.2157 62.8506 11.5847 62.826H1.78716C1.5483 62.8469 1.30814 62.8109 1.08326 62.7203C0.858391 62.6298 0.654169 62.487 0.484728 62.3017C0.315287 62.1164 0.184669 61.893 0.101889 61.6471C0.0191081 61.4012 -0.0138502 61.1386 0.00528644 60.8774V46.8087C0.00528644 45.0773 0.402475 44.1 1.78716 43.1287L10.1008 37.6086C10.1524 37.5467 10.2232 37.508 10.2994 37.5C10.3987 37.5 10.498 37.6086 10.498 37.9344V56.6362C10.498 56.8534 10.5973 56.962 10.6966 56.962C10.7505 56.9694 10.8052 56.9635 10.8568 56.9447C10.9083 56.9259 10.9554 56.8947 10.9945 56.8535L39.2067 38.23C39.7661 37.8376 40.4242 37.6476 41.0878 37.687H56.3359C56.5747 37.6661 56.8149 37.7021 57.0398 37.7927C57.2646 37.8832 57.4689 38.026 57.6383 38.2113C57.8077 38.3966 57.9384 38.6199 58.0211 38.8659C58.1039 39.1118 58.1369 39.3744 58.1177 39.6356V60.5275L58.0184 60.5516Z" fill="black"/>
</svg>
