<svg width="100" height="100" viewBox="0 0 100 100" fill="none" xmlns="http://www.w3.org/2000/svg">
<g clip-path="url(#clip0_1108_1061)">
<path d="M50 77.264C36.944 77.264 24.624 74.616 15.312 69.808C9.592 66.848 0 60.368 0 50.128C0 39.888 9.592 33.416 15.304 30.464C24.616 25.648 36.936 23 50 23C63.064 23 75.384 25.648 84.696 30.464C90.416 33.416 100 39.896 100 50.136C100 60.376 90.408 66.856 84.696 69.808C75.392 74.616 63.072 77.264 50 77.264ZM50 25.32C37.304 25.32 25.368 27.88 16.376 32.52C11.12 35.232 2.32 41.128 2.32 50.128C2.32 59.128 11.12 65.024 16.368 67.744C25.36 72.384 37.304 74.944 49.992 74.944C62.68 74.944 74.64 72.384 83.624 67.744C88.872 65.032 97.68 59.136 97.68 50.128C97.68 41.12 88.88 35.232 83.624 32.52C74.64 27.872 62.696 25.32 49.992 25.32H50Z" fill="black"/>
<path d="M50 73.784C37.488 73.784 25.736 71.272 16.904 66.712C11.888 64.12 3.48 58.52 3.48 50.128C3.48 41.736 11.888 36.144 16.904 33.552C25.736 28.992 37.488 26.48 50 26.48C62.512 26.48 74.272 28.992 83.096 33.552C88.112 36.144 96.52 41.736 96.52 50.128C96.52 58.52 88.112 64.12 83.096 66.712C74.28 71.272 62.52 73.784 50 73.784ZM50 27.64C37.672 27.64 26.104 30.104 17.44 34.584C12.664 37.056 4.648 42.352 4.648 50.128C4.648 57.904 12.664 63.208 17.44 65.68C26.104 70.152 37.672 72.616 50 72.616C62.328 72.616 73.904 70.152 82.568 65.68C87.344 63.208 95.368 57.904 95.368 50.128C95.368 42.352 87.352 37.048 82.568 34.584C73.904 30.104 62.336 27.64 50 27.64Z" fill="black"/>
<path d="M18.024 55.408L16.968 58.312H24.592L25.584 55.584H20.304L26.304 53.552L26.672 52.576L18.024 55.416V55.408ZM32.56 53.704H34.384C34.928 53.704 35.152 53.984 35.16 54.312C35.16 54.52 35.072 54.896 34.936 55.248C34.736 55.736 34.52 55.856 34.24 55.976C34.048 56.056 33.648 56.08 33.256 56.08H31.752L32.568 53.712L32.56 53.704ZM29.712 51.088L29.616 51.384L29.816 51.576C30.032 51.784 30.024 52.032 29.832 52.56L26.376 62.544H29.536L30.888 58.576H31.96L33.152 62.544H36.32L34.832 58.488C35.696 58.344 36.136 58.096 36.568 57.712C37.168 57.168 37.576 56.4 37.92 55.28C38.424 53.648 38.12 52.712 37.8 52.24C37.36 51.584 36.432 51.088 34.672 51.088H29.728H29.712ZM58.304 51.088L54.112 59.32H54.024L53.816 51.088H50.304L50.168 51.384L50.472 51.568C50.76 51.776 50.84 51.984 50.88 52.552L51.352 62.552H55.264L61.568 51.088H58.304ZM74.92 53.704H76.744C77.288 53.704 77.512 53.984 77.52 54.312C77.52 54.52 77.432 54.896 77.296 55.248C77.096 55.736 76.88 55.856 76.6 55.976C76.408 56.056 76.008 56.08 75.616 56.08H74.104L74.92 53.712V53.704ZM72.072 51.088L71.976 51.384L72.176 51.576C72.384 51.784 72.376 52.032 72.192 52.56L68.736 62.544H71.896L73.248 58.584H74.32L75.512 62.544H78.688L77.2 58.488C78.064 58.344 78.504 58.096 78.936 57.712C79.536 57.168 79.952 56.4 80.288 55.28C80.784 53.648 80.488 52.712 80.168 52.24C79.728 51.584 78.8 51.088 77.04 51.088H72.096H72.072ZM62.536 51.08L62.424 51.416L62.624 51.608C62.832 51.816 62.824 52.064 62.64 52.592L59.208 62.544H66.904L67.84 59.88H63.344L64.008 57.952H67.984L68.856 55.56H64.832L65.456 53.728H69.824L70.784 51.08H62.544H62.536ZM41.408 58.984C41.408 58.552 41.52 57.912 41.976 56.656C42.368 55.528 42.68 54.8 43.136 54.328C43.488 53.952 43.96 53.68 45.048 53.68C45.904 53.68 46.376 54.032 46.376 54.688C46.376 55.12 46.264 55.76 45.808 57.024C45.416 58.152 45.104 58.872 44.648 59.352C44.288 59.728 43.816 60 42.728 60C41.872 60 41.4 59.648 41.4 58.992L41.408 58.984ZM45.272 50.944C43.112 50.944 41.88 51.528 40.864 52.6C39.608 53.936 38.424 57.536 38.448 59.44C38.472 61.384 39.728 62.728 42.368 62.728H42.76C44.92 62.728 46.152 62.144 47.168 61.072C48.424 59.736 49.584 56.136 49.56 54.232C49.536 52.288 48.28 50.944 45.64 50.944H45.28H45.272ZM70.032 41.256L69.04 43.984H74.32L68.32 46.024L67.952 47L76.6 44.16L77.656 41.256H70.032ZM26.064 37.144L25.968 37.44L26.168 37.632C26.376 37.84 26.376 38.088 26.184 38.616L22.768 48.6H30.592L31.536 45.864H26.992L29.992 37.136H26.064V37.144ZM39.44 40.312H39.544L39.6 43.776H37.488L39.44 40.312ZM37.528 37.144L37.432 37.44L37.576 37.584C37.816 37.816 37.712 38.152 36.832 39.552L31.432 48.6H34.76L36.2 46.064H39.64L39.672 48.6H42.696L42.04 37.144H37.52H37.528ZM61.296 39.864H62.528C63.384 39.864 63.856 40.144 63.864 40.808C63.864 41.232 63.752 41.816 63.312 43.072C62.92 44.2 62.608 44.848 62.16 45.328C61.808 45.704 61.328 45.872 60.24 45.872H59.224L61.296 39.864ZM58.4 37.144L58.304 37.44L58.504 37.632C58.712 37.84 58.712 38.088 58.52 38.616L55.096 48.6H60.144C62.304 48.6 63.544 48.12 64.544 47.048C65.8 45.712 66.952 42.256 66.912 40.352C66.88 38.408 65.624 37.144 62.976 37.144H58.392H58.4ZM54.104 37.144L52.008 43.376L50.816 37.144H46.76L46.664 37.44L46.864 37.632C47.08 37.84 47.072 38.088 46.888 38.616L43.472 48.6H46.344L48.848 41.184L50.32 48.6H53.192L57.112 37.136H54.104V37.144Z" fill="black"/>
</g>
<defs>
<clipPath id="clip0_1108_1061">
<rect width="100" height="54.264" fill="white" transform="translate(0 23)"/>
</clipPath>
</defs>
</svg>
