<svg width="100" height="100" viewBox="0 0 100 100" fill="none" xmlns="http://www.w3.org/2000/svg">
<path fill-rule="evenodd" clip-rule="evenodd" d="M50 85.811C66.5529 85.811 81.2287 80.0303 90.337 71.1246L82.1352 71.1566C74.3814 77.6732 63.0546 81.7795 50.2026 81.7795C26.2372 81.7795 7.54053 67.4983 7.54053 49.8895C7.52987 29.5824 26.2372 17.9996 50.2026 17.9996C51.7278 17.9996 52.9437 18.7035 52.0265 20.026C47.0457 26.0201 32.8712 45.3034 30.2901 49.4842C25.192 57.7287 25.3093 67.8716 37.8093 68.5862H90.3584C93.0461 68.5862 93.7287 67.3277 94.6992 66.0158C98.2189 61.259 100 55.6916 100 49.9002C100 34.7551 89.3345 23.4177 73.6668 17.8289L71.2457 21.4552C84.2683 26.2547 92.8861 35.971 92.8861 49.9002C92.8861 52.3213 92.5341 54.6783 91.8622 56.9394C91.2756 58.9019 90.145 60.5657 87.9906 60.5657H46.0431C40.6677 60.5657 42.7474 55.0196 44.7312 52.3426C47.6216 47.1698 63.4279 25.6255 67.2248 21.6152C68.1954 20.1434 70.9151 17.093 67.1608 15.9305C61.8067 14.6613 56.0367 14 50 14C22.387 13.9787 0.0106693 28.1532 3.80754e-06 49.8895C-0.0106617 71.8285 22.387 85.8004 50 85.8004V85.811Z" fill="black"/>
</svg>
