<svg width="100" height="100" viewBox="0 0 100 100" fill="none" xmlns="http://www.w3.org/2000/svg">
<g clip-path="url(#clip0_1118_1002)">
<path d="M57.5644 81.4011H41.6786V85.3238H57.5644V81.4011Z" fill="#212721"/>
<path d="M55.6346 86.8545H43.6084V94.997H55.6346V86.8545Z" fill="#212721"/>
<path d="M73.2522 63.1863H26.0058V65.1611H73.2522V63.1863Z" fill="#212721"/>
<path d="M75.7583 66.8989H23.4727V68.8678H75.7583V66.8989Z" fill="#212721"/>
<path d="M75.7073 59.5366H23.4066V61.5085H75.7073V59.5366Z" fill="#212721"/>
<path d="M57.8706 73.0996C55.2594 75.5006 55.2714 79.8015 55.2714 79.8015H43.9956C43.9956 79.8015 44.0106 75.4976 41.3934 73.1176C39.5626 71.4278 37.3267 71.0797 37.3267 71.0797C35.862 70.7916 35.856 70.6295 35.856 70.5334H63.375C63.375 70.5334 63.375 70.7916 61.9223 71.0797C61.9223 71.0797 59.6984 71.4308 57.8706 73.1026" fill="#212721"/>
<path d="M26.2159 70.5334H31.9003C31.9003 73.8829 29.7184 75.3986 26.2159 74.6422V70.5334Z" fill="#212721"/>
<path d="M46.3246 16.3089C48.5906 11.846 49.0257 5.12305 49.623 5C50.1752 5.12305 50.6044 11.837 52.8674 16.3089C55.0043 20.5227 59.5723 24.0973 59.3172 24.5145C58.9931 25.0457 56.457 23.7401 55.1814 23.1399C53.1315 22.1704 51.4688 21.4381 51.4688 21.4381C51.4688 21.4381 50.6464 32.1528 53.2576 42C55.3975 50.0795 60.5087 57.4357 60.9769 58.072H54.4521C54.257 57.7238 54.0499 57.3937 53.8608 57.0576C52.0841 53.9482 50.8235 51.229 49.611 46.574C48.3715 51.226 47.1019 53.9482 45.3311 57.0576C45.1481 57.3937 44.953 57.7419 44.7369 58.072H38.2271C38.6893 57.4357 43.7945 50.0765 45.9314 42C48.5275 32.1498 47.7232 21.4381 47.7232 21.4381C47.7232 21.4381 46.0605 22.1824 44.0226 23.1399C42.735 23.7401 40.1959 25.0457 39.8748 24.5325C39.6137 24.1093 44.1937 20.5227 46.3216 16.3089" fill="#212721"/>
<path d="M25.9938 58.0751C25.9578 57.2797 25.5736 46.496 23.0225 38.0114C20.2313 28.7133 14.6368 23.197 15.018 22.6357C15.3482 22.1195 19.9822 23.0529 23.4547 25.4299C27.1733 27.972 30.8049 32.1708 30.5287 32.489C30.3697 32.6691 29.1121 31.6396 26.8611 30.8053C24.4571 29.9049 23.4247 30.0819 23.4247 30.0819C23.4247 30.0819 27.3954 36.6458 29.3672 43.7469C31.0119 49.6864 31.8793 57.4058 31.9183 58.0751H25.9908H25.9938Z" fill="#212721"/>
<path d="M73.2702 58.075C73.2972 57.2797 73.7054 46.496 76.2475 38.0113C79.0417 28.7163 84.6362 23.1999 84.261 22.6386C83.9099 22.1224 79.2938 23.0558 75.8123 25.4329C72.0967 27.975 68.4682 32.1738 68.7443 32.4919C68.8973 32.672 70.1489 31.6425 72.4089 30.8082C74.8069 29.9078 75.8544 30.0849 75.8544 30.0849C75.8544 30.0849 71.8806 36.6487 69.9088 43.7498C68.2581 49.6894 67.3877 57.4087 67.3367 58.078H73.2672L73.2702 58.075Z" fill="#212721"/>
<path d="M73.0422 70.5334H67.3757C67.3757 73.8829 69.5546 75.3986 73.0422 74.6422V70.5334Z" fill="#212721"/>
</g>
<defs>
<clipPath id="clip0_1118_1002">
<rect width="69.279" height="90" fill="white" transform="translate(15 5)"/>
</clipPath>
</defs>
</svg>
