<svg width="100" height="100" viewBox="0 0 100 100" fill="none" xmlns="http://www.w3.org/2000/svg">
<g clip-path="url(#clip0_4732_3)">
<path fill-rule="evenodd" clip-rule="evenodd" d="M35.9767 48.7881H40.4085V55.1892H43.3631V57.1598H35.9767V48.7881ZM57.1506 57.1598H61.5824V52.2346H64.0437V50.2647H58.1352C57.6439 50.2647 57.1506 50.7535 57.1506 51.2494V57.1598ZM75.0324 50.2654H67.2586C63.6493 50.2654 63.6557 57.1598 67.2586 57.1598H75.8619V55.1892H68.9682V54.2046H75.0317C76.8057 54.2046 76.7796 50.2654 75.0324 50.2654ZM68.9688 52.2346H72.4147V53.2193H68.9688V52.2346ZM45.6706 57.1598H53.443C57.0536 57.1598 57.0472 50.2654 53.443 50.2654H44.8397V52.2353H51.7341V53.2199H45.6706C43.8953 53.2199 43.9221 57.1598 45.6706 57.1598ZM51.7341 55.1892H48.2863V54.2052H51.7341V55.1892ZM34.9914 50.2654H26.2751C22.8152 50.2654 22.8209 57.1598 26.2751 57.1598H34.9914V55.1892H29.328C27.695 55.1892 27.695 52.2346 29.328 52.2346H34.9914V50.2654ZM19.2212 48.7938L19.2276 48.7881H22.6824V57.1598H18.2506V53.2193L13.8194 57.1598H9.43544V53.2193L5.00297 57.1598H0L10.4201 48.7881H13.8194V53.2193L19.2212 48.7938ZM84.725 50.2654H86.2616C87.7146 50.2654 88.6125 51.1875 88.6648 52.1402V57.1591H84.725V53.7189C84.725 52.6903 83.7403 52.234 81.771 52.234V57.1591H77.3392V50.2654H84.725Z" fill="black"/>
<path fill-rule="evenodd" clip-rule="evenodd" d="M80.5439 48.2151C96.7028 39.3106 109.197 42.3322 91.0483 53.3074C95.0391 46.6351 89.9685 45.9791 80.5439 48.2151Z" fill="#F77B00"/>
</g>
<defs>
<clipPath id="clip0_4732_3">
<rect width="100" height="100" fill="white"/>
</clipPath>
</defs>
</svg>
