<svg width="100" height="100" viewBox="0 0 100 100" fill="none" xmlns="http://www.w3.org/2000/svg">
<g clip-path="url(#clip0_1108_1050)">
<path d="M100 38.1923H68.4619C64.5575 32.069 57.71 28 49.9144 28C42.1188 28 35.2713 32.069 31.3735 38.1923H0L3.19331 41.3922H29.6813C29.1941 42.5444 28.8056 43.7493 28.5159 44.9937H6.78167L9.97498 48.1936H28.0221C27.976 48.7796 27.9431 49.3721 27.9431 49.9713C27.9431 50.5704 27.976 51.1894 28.0221 51.7885H13.5699L16.7632 54.9884H28.5291C28.8188 56.2328 29.2139 57.4377 29.7011 58.5899H20.3582L23.5515 61.7898H31.3998C35.3042 67.8933 42.1385 71.9426 49.921 71.9426C57.7035 71.9426 64.5378 67.8933 68.4422 61.7898H76.4617L79.655 58.5899H70.1409C70.6347 57.4377 71.0232 56.2328 71.3129 54.9884H83.2434L86.4367 51.7885H71.8133C71.8594 51.1894 71.8923 50.5836 71.8923 49.9713C71.8923 49.359 71.8594 48.7796 71.8133 48.1936H90.025L93.2183 44.9937H71.3195C71.0298 43.7493 70.6413 42.5444 70.1541 41.3922H96.8133L100.007 38.1923H100ZM50 68.769C39.6366 68.769 31.2418 60.3677 31.2418 50.0108C31.2418 39.6539 39.6431 31.2526 50 31.2526C60.3569 31.2526 68.7582 39.6539 68.7582 50.0108C68.7582 60.3677 60.3569 68.769 50 68.769Z" fill="black"/>
<path d="M40.3542 52.7367L37.8061 45.0332H34.9157V54.9292H37.0226V47.5879L39.2481 54.9292H41.434L43.666 47.5879V54.9292H45.773V45.0332H42.8759L40.3542 52.7367Z" fill="black"/>
<path d="M58.7174 52.2758L54.7472 45.0332H52.4164V54.9292H54.3785V47.9895L58.3421 54.9884L60.6992 54.9292V45.0332H58.7437L58.7174 52.2758Z" fill="black"/>
<path d="M50.079 45.02H48.0708V54.916H50.079V45.02Z" fill="black"/>
<path d="M64.9921 45.02H62.9839V54.916H64.9921V45.02Z" fill="black"/>
</g>
<defs>
<clipPath id="clip0_1108_1050">
<rect width="100" height="43.9426" fill="white" transform="translate(0 28)"/>
</clipPath>
</defs>
</svg>
