<svg width="100" height="100" viewBox="0 0 100 100" fill="none" xmlns="http://www.w3.org/2000/svg">
<g clip-path="url(#clip0_1108_1058)">
<path d="M49.0068 94.568C37.3104 89.132 27.1404 80.2076 20.394 69.4616C13.644 58.7192 10.08 46.2308 9.216 30.1424C8.928 24.9404 8.928 18.4424 9.216 10.256L9.27 8.528L10.98 8.24C23.9184 6.098 37.0008 5 49.8888 5C62.7768 5 75.8772 6.098 88.7976 8.258L90.5076 8.546L90.5616 10.274C90.8496 18.446 90.8496 24.9584 90.5616 30.1604C89.6796 46.2488 86.1336 58.7372 79.3872 69.4832C72.6372 80.2256 62.4708 89.1356 50.7744 94.5896L49.8924 95.0036L49.0104 94.5716L49.0068 94.568Z" fill="black"/>
<path d="M31.8024 59.4213C31.5504 59.4753 31.4244 59.3313 31.3884 59.1693C31.2804 58.7193 31.0284 57.1533 30.9564 56.6853C30.9204 56.4333 30.9924 56.2893 31.2264 56.2173C32.3424 55.8573 34.2144 55.2273 35.7264 54.6873C36.1224 54.5433 36.2304 54.3993 36.4464 54.0393C37.0764 53.0313 38.6244 50.2953 39.3624 48.8733C39.4704 48.6753 39.4524 48.4233 39.3444 48.2433L39.0024 47.6853C38.8944 47.4873 38.6244 47.2893 38.4084 47.2353C36.8784 46.8393 34.8444 46.3353 33.8724 46.1193C33.6564 46.0653 33.4404 46.0833 33.2244 46.1373L33.0444 46.1913C34.5204 46.6953 35.7624 47.1453 37.3644 47.7393C37.5084 47.7933 37.6524 47.9553 37.6884 48.0813L37.8324 48.5673C37.8864 48.7653 37.8684 48.9633 37.7784 49.1613C37.1124 50.4753 35.9424 52.2393 35.0064 53.3553C34.8624 53.5173 34.6824 53.6613 34.4844 53.7333C33.5844 54.0753 31.9464 54.6153 31.2264 54.7953C31.0824 54.8313 31.0104 54.8133 30.9024 54.7413C30.3804 54.3813 29.3004 53.3733 29.3004 53.3733C29.3004 53.3733 29.2104 54.4713 29.2104 54.9573C29.2104 55.0113 29.2284 55.0653 29.2464 55.1193C29.4264 55.5513 29.7504 56.3613 29.8944 56.7933C29.9304 56.9013 29.9664 56.9913 29.9844 57.0993C30.1644 57.8193 30.6684 59.9433 30.6684 59.9433C30.7404 60.2673 30.9204 60.3753 31.2084 60.3213C31.5684 60.2493 32.7384 59.9073 33.2244 59.7633C33.2964 59.7453 33.3684 59.6913 33.4224 59.6553C33.7284 59.3673 34.2504 58.8993 34.2504 58.8993C34.2504 58.8993 32.4684 59.2953 31.8024 59.4213Z" fill="white"/>
<path d="M34.4484 52.9231C35.0424 52.2031 35.8344 51.0511 36.5004 49.9531L31.6224 53.9851C32.4144 53.7331 33.5124 53.3731 34.1604 53.1211C34.2684 53.0851 34.3764 53.0131 34.4484 52.9231Z" fill="white"/>
<path d="M34.5564 36.6909L33.6744 36.7629C33.6024 36.7629 33.5484 36.8169 33.5484 36.8889L33.4764 37.9329C33.4764 37.9869 33.5124 38.0229 33.5664 38.0229L34.4484 37.8249C34.5564 37.8069 34.6824 37.6989 34.7184 37.6089C34.8264 37.3569 34.8624 37.0689 34.7364 36.8169C34.7184 36.7269 34.6464 36.6909 34.5564 36.6909Z" fill="white"/>
<path d="M26.0424 49.6689L27.3744 51.2169L27.7704 48.5349C26.9964 48.6609 26.2944 49.1469 26.0424 49.6689Z" fill="white"/>
<path d="M69.2892 49.3809C68.7492 48.4269 66.0492 44.7729 62.6832 41.2629C62.5572 41.1369 62.4132 41.0289 62.2512 40.9569L61.6932 40.7229C61.6932 40.7229 62.6652 45.0069 63.1152 47.3469C63.1692 47.6529 63.3132 47.9229 63.5292 48.1389C65.0412 49.6329 66.0312 50.7849 66.8592 52.0269C67.2192 52.5669 67.4352 53.1789 67.4712 53.8269C67.7052 57.2289 67.5972 61.9089 67.2192 64.5153C67.1472 65.0373 67.0212 65.2353 66.6612 65.5053C63.4032 68.1333 58.0032 72.7773 55.7028 75.0777C55.4508 75.3117 55.3608 75.4197 55.2168 75.6537C54.9108 76.1217 54.5868 76.7877 54.5868 76.7877C54.5868 76.7877 54.0288 75.0957 53.9208 74.1777C53.8668 73.7457 53.8668 73.6377 53.9208 73.1877C54.2088 71.2257 55.5768 66.6897 55.7928 66.0057C55.8108 65.9517 55.8288 65.8797 55.8288 65.8257V65.3937C55.3248 66.4377 52.7688 72.1977 52.2288 74.1777C52.1208 74.5917 52.1388 74.7537 52.2468 75.0777C52.5708 76.0317 53.5428 78.3897 53.9928 79.3617C53.9928 79.3617 55.0368 77.3997 55.6488 76.3917C55.8108 76.1217 56.0268 75.8697 56.2608 75.6357C58.0788 73.9437 64.6308 68.4897 67.6872 66.1893C68.1012 65.8833 68.2272 65.6673 68.3352 65.2353C69.5772 60.5193 70.0992 55.0869 69.4872 49.9569C69.4692 49.7589 69.3972 49.5789 69.2892 49.3809Z" fill="white"/>
<path d="M55.8792 35.5747C56.0052 35.3587 56.0592 35.1067 56.0052 34.8547C55.8972 34.2607 55.7532 33.5587 55.6272 33.0367C55.6092 32.9287 55.5372 32.8567 55.4472 32.8027L54.5292 32.3527C54.4032 32.2987 54.2772 32.2807 54.1332 32.2987C51.9012 32.6947 49.5612 33.1627 47.7972 33.5587C47.6532 33.5947 47.5272 33.6847 47.4552 33.8107L46.8972 34.7647C46.8612 34.8367 46.8972 34.9267 46.9872 34.9447C47.4552 35.0347 48.3912 35.1967 48.7152 35.2507C48.9132 35.2867 48.9852 35.2687 49.1472 35.2147C50.2632 34.7467 52.0992 34.0447 53.4672 33.5407C53.5752 33.5047 53.6832 33.5047 53.8092 33.5407L54.4392 33.7387C54.5292 33.7747 54.6012 33.8287 54.6552 33.9187C54.8352 34.2247 54.9972 34.5487 55.1052 34.7647C55.1772 34.9267 55.1412 35.1247 55.0152 35.3227C54.5472 35.9887 53.7552 37.0507 53.2152 37.7167C53.0892 37.8607 53.0532 38.0587 53.1072 38.2387C53.4312 39.3367 54.1152 41.6047 54.4932 42.7027C54.5472 42.8287 54.6012 42.9367 54.7092 43.0267L55.2312 43.4947C55.2312 43.4947 54.4032 39.6607 54.2052 38.5627C54.1692 38.3827 54.1872 38.2207 54.2772 38.0767C54.7092 37.4287 55.5012 36.2407 55.8792 35.5747Z" fill="white"/>
<path d="M75.7656 38.7247C75.6936 38.4367 75.6036 38.3107 75.3696 38.1307C72.8856 36.2767 68.4036 33.6487 65.7432 32.5327C65.4012 32.3887 65.0232 32.3887 64.6632 32.5147C63.3852 32.9827 61.3692 33.8287 59.2452 34.8187C59.2452 34.8187 60.1812 34.8907 60.6132 34.9447C60.8472 34.9627 60.9192 34.9627 61.1532 34.9087C61.8012 34.7287 62.9532 34.4407 63.8532 34.2427C64.3032 34.1347 64.7532 34.2427 65.1132 34.5127C66.3552 35.4307 68.3532 37.0507 69.6312 38.1127C69.8472 38.2927 70.0992 38.4547 70.3692 38.5627C72.3132 39.3367 73.1772 39.7327 73.6092 39.9487C73.9152 40.1107 74.1312 40.3807 74.2212 40.7227C74.7252 42.6667 75.0672 45.6727 75.2472 47.8327C75.2832 48.2287 75.2292 48.6247 75.0852 49.0207C74.5452 50.5687 73.1772 53.1427 72.4212 54.3667C72.3492 54.4747 72.2772 54.5647 72.1512 54.6727C71.8812 54.9067 71.4132 55.2847 71.0532 55.5547C70.9812 55.6087 70.9452 55.6807 70.9452 55.7707C70.9452 56.6167 70.7832 58.2187 70.7832 58.2187C72.6552 55.8787 74.4192 52.8367 76.0032 49.6147C76.1292 49.3447 76.1832 49.2007 76.2012 48.9487C76.5792 45.4927 76.3452 41.3887 75.7692 38.7283L75.7656 38.7247Z" fill="white"/>
<path d="M50.9688 80.6216C50.5368 79.6316 48.2508 74.2136 47.6208 72.1436C47.4048 71.4056 47.3688 71.2076 47.4588 70.3796C47.9808 65.2856 49.7988 57.1892 50.0868 56.0912C50.1408 55.8572 50.1408 55.7852 50.1048 55.5512C50.0328 55.1372 49.7808 53.6792 49.7808 53.6792C48.9528 55.5872 46.0008 63.5036 44.9208 68.1656C44.7228 69.0476 44.7588 69.2816 44.9388 69.7496C46.5048 73.7996 50.4828 81.122 51.2208 82.22L51.0588 80.942C51.0408 80.834 51.0048 80.726 50.9688 80.618V80.6216Z" fill="white"/>
<path d="M47.4048 80.9275C47.4048 80.9275 46.5408 80.3695 46.2708 80.1895C46.0008 80.0095 45.8928 79.9195 45.7668 79.8115C43.9488 78.1735 37.5948 70.3651 35.6904 66.9631C35.3664 66.3871 35.2764 66.1171 35.3124 65.5591C35.3484 64.9111 35.4744 63.6331 35.6004 62.8951C35.6724 62.4271 35.7804 62.1211 36.1764 61.7791C37.2564 60.8071 39.0024 59.0431 39.9204 58.1251C40.3164 57.7111 40.5144 57.4591 40.7304 57.0631C41.5584 55.4971 44.1144 49.9531 44.9784 47.6707C45.1224 47.2747 45.1404 47.1487 45.0864 46.7347C44.9244 45.5467 43.9704 42.4507 43.9704 42.4507L43.8804 43.4767C43.8804 43.5487 43.8804 43.6207 43.8984 43.6927C43.9704 44.1427 44.2584 45.9067 44.2584 46.8247C44.2584 47.1307 44.2404 47.2567 44.0784 47.5807C42.8004 50.1007 37.7964 56.8291 34.632 60.4831C34.272 60.8971 34.182 61.1671 34.074 61.6351C33.912 62.4091 33.732 64.1551 33.606 65.5591C33.534 66.3151 33.588 66.5671 34.074 67.3591C35.982 70.5271 42.48 78.1375 44.6004 79.8835C44.7444 79.9915 44.8884 80.0995 45.0504 80.1895C45.7884 80.5855 47.8404 81.5935 47.8404 81.5935L47.5164 81.0355C47.4804 80.9815 47.4444 80.9635 47.4084 80.9275H47.4048Z" fill="white"/>
<path d="M37.9728 35.6468L42.0048 34.3868C42.2388 34.3148 42.4368 34.1528 42.5628 33.9368L44.7228 30.2288C44.7768 30.1388 44.7048 30.0308 44.6148 30.0308L42.7788 30.0488C42.6168 30.0488 42.4188 30.0848 42.2568 30.1388C40.6548 30.6788 38.3688 31.6868 37.0908 32.3708C36.9468 32.4428 36.8028 32.5688 36.7128 32.6948L34.7688 35.0888C34.6968 35.1608 34.6248 35.2328 34.5348 35.2688L33.2748 35.8088C33.2208 35.8268 33.1668 35.8808 33.1308 35.9348L33.0768 36.0608C33.0768 36.0608 35.7408 35.9708 36.6408 35.9168C37.1088 35.8808 37.5048 35.7908 37.9728 35.6468Z" fill="white"/>
<path d="M45.3708 26.9204C50.4468 26.5424 56.2932 26.6504 57.7152 26.6864C57.9312 26.6864 58.1292 26.7224 58.3452 26.7944L59.3892 27.1364C56.8332 27.2624 50.6772 27.8204 48.1788 28.2524L49.0608 28.3964C49.1148 28.4144 49.1868 28.4144 49.2408 28.3964C51.0948 28.2884 54.6948 28.1624 56.2788 28.1444C56.6568 28.1444 56.8728 28.1804 57.2688 28.3244C58.1868 28.6844 60.0408 29.5124 60.8148 29.9084C61.2108 30.1064 61.4988 30.1784 61.9128 30.1964C62.7408 30.2324 64.0188 30.3224 64.9548 30.4124C65.2068 30.4484 65.4588 30.5204 65.6928 30.6284C67.6188 31.6004 69.9228 32.9864 71.5068 34.0304C71.5968 34.0844 71.7048 34.1384 71.8128 34.1564L72.5868 34.3184C72.5868 34.3184 70.0848 31.7624 69.0948 30.8984C68.9508 30.7724 68.8068 30.6644 68.6268 30.5744C64.9008 28.4504 61.5528 26.7044 59.6628 25.9124C59.3568 25.7864 59.0328 25.7144 58.7088 25.6784C52.9488 25.2464 46.9224 25.3544 42.4764 25.7324C42.1524 25.7684 41.9004 25.9124 41.7564 26.1284C41.5764 26.3804 41.3064 26.8304 41.0364 27.2624C40.9104 27.4604 40.7484 27.6584 40.5684 27.8204C39.7584 28.5224 38.4084 29.6564 37.5624 30.3044C37.4904 30.3584 37.4544 30.3944 37.4004 30.4304C37.0404 30.6824 35.8704 31.4564 35.6544 31.6004C35.5644 31.6544 35.5464 31.6724 35.4924 31.7444C35.4204 31.8344 35.0604 32.2844 35.0604 32.2844C38.6064 30.2864 43.1244 27.7844 44.6688 27.1004C44.8668 26.9924 45.1188 26.9384 45.3708 26.9204Z" fill="white"/>
<path d="M28.8144 38.1668C28.7784 38.2208 28.7244 38.2748 28.6524 38.3108C25.5024 40.5608 23.7204 42.0008 23.0184 42.5948C22.7304 42.8828 22.4604 43.1528 22.2084 43.4048C21.9924 43.6388 21.9384 43.7288 21.9204 43.9088C21.9024 44.0708 21.9024 44.2688 21.9024 44.3948C21.9024 44.4668 21.9204 44.5208 21.9564 44.5748C21.9924 44.6468 22.2444 44.9168 22.3164 44.9888C22.3524 45.0248 22.3884 45.0248 22.4244 45.0068C22.8924 44.6828 23.5404 44.1968 24.1344 43.7468C24.1884 43.7108 24.2604 43.6208 24.2964 43.5668C24.4044 43.3868 24.5304 43.1528 24.6024 42.9908C24.6564 42.8828 24.6924 42.8468 24.8004 42.7748C24.9264 42.7028 25.2864 42.4688 25.2864 42.4688C25.2864 42.4688 25.0164 43.5668 24.8184 43.9628C24.7464 44.0888 24.6924 44.1788 24.6384 44.2328C24.1704 44.7188 23.3244 45.6548 22.9104 46.1768C22.7664 46.3568 22.8204 46.5728 22.9284 46.7348C23.3244 47.3108 24.1164 48.3008 24.6024 48.8228C24.7464 48.9848 24.8184 49.0568 24.9624 49.1288C25.1604 49.2368 25.3044 49.2908 25.3044 49.2908C25.3044 49.2908 25.7004 47.3468 25.8804 46.7528C25.9344 46.5548 26.0604 46.3928 26.3304 46.3208C28.4004 45.7988 32.8644 45.0608 32.8644 45.0608C32.3964 44.5028 30.8304 42.8828 30.3444 42.4688C30.2004 42.3428 30.0744 42.2888 29.8764 42.2708C29.3004 42.1988 27.4104 42.0728 27.4104 42.0728C27.4104 42.0728 27.5724 41.8928 27.6984 41.7668C27.8064 41.6588 27.8784 41.6048 28.0224 41.5508C30.3444 40.7408 33.4404 39.5708 35.2404 38.8148C35.6364 38.6528 35.8164 38.5268 36.1404 38.2028C36.2844 38.0588 36.5544 37.7528 36.7164 37.5728C36.7524 37.5368 36.7704 37.5008 36.7704 37.4648C36.7884 37.4108 36.7884 37.3028 36.7884 37.3028C36.7884 37.3028 36.0144 37.8788 35.7084 38.0948C35.4204 38.2928 35.2404 38.3828 34.9164 38.4728C34.2864 38.6348 33.0804 38.9228 32.3784 39.0848C32.1804 39.1208 32.0904 39.1388 31.9104 39.0668C31.8024 39.0308 31.5864 38.9408 31.4424 38.8868C31.2984 38.8148 31.2444 38.8148 31.0824 38.8508C30.4524 38.9948 28.7244 39.4088 28.7244 39.4088C28.7244 39.4088 29.5164 38.7068 29.5704 38.6528C29.6424 38.5988 29.6784 38.5808 29.8044 38.5268C30.3984 38.2928 31.1364 38.0228 31.7664 37.7708C31.9104 37.7168 31.9644 37.6448 31.9824 37.5008C32.0184 37.0148 32.1624 36.1508 32.2344 35.7008C32.2524 35.5748 32.3064 35.5028 32.3964 35.4128C32.7564 35.1248 34.1064 34.0988 34.4124 33.8648C34.4304 33.8468 34.4484 33.8288 34.4664 33.8108L34.8264 33.3608C33.8724 33.9188 32.1624 34.9268 31.2984 35.4848C30.9204 35.7188 30.7404 35.8448 30.3624 36.1508C30.3264 36.1868 30.2904 36.2228 30.2544 36.2588C30.0924 36.4928 29.1564 37.7168 28.8144 38.1668Z" fill="white"/>
<path d="M27.3924 20.5664V15.1304C29.6964 14.9324 32.0184 14.7524 34.3404 14.6084V15.4904C32.3244 15.6164 30.3084 15.7604 28.2924 15.9404V17.2904C30.0744 17.1464 31.8564 17.0024 33.6564 16.8944V17.7764C31.8744 17.8844 30.0924 18.0284 28.2924 18.1724V19.5944C30.3084 19.4144 32.3244 19.2704 34.3404 19.1444V20.0264C32.0184 20.1884 29.7144 20.3504 27.3924 20.5664Z" fill="white"/>
<path d="M17.946 21.5745V16.1385C19.782 15.9045 21.6 15.6885 23.436 15.5085C23.76 15.4725 24.012 15.4905 24.228 15.5445C24.462 15.5985 24.642 15.7065 24.786 15.8505C24.93 15.9945 25.02 16.1565 25.074 16.3725C25.11 16.5345 25.128 16.7325 25.128 16.9305V17.5605C25.128 17.7585 25.11 17.9385 25.074 18.1185C25.02 18.3345 24.93 18.5145 24.786 18.6765C24.642 18.8385 24.462 18.9825 24.228 19.0725C24.012 19.1625 23.76 19.2345 23.436 19.2525C21.906 19.4145 20.358 19.5945 18.828 19.7745V21.4665C18.54 21.5025 18.252 21.5385 17.946 21.5745ZM18.8424 18.8745C20.4624 18.6765 22.1004 18.4965 23.7384 18.3165C24.0264 18.2805 24.2424 18.0285 24.2424 17.7585V16.8045C24.2424 16.5165 24.0084 16.3185 23.7384 16.3545C22.1004 16.5165 20.4804 16.7145 18.8424 16.9125V18.8745Z" fill="white"/>
<path d="M67.2012 20.1523C66.8592 20.1343 66.5712 20.0803 66.3552 20.0263C66.0852 19.9543 65.8692 19.8463 65.7072 19.7203C65.5272 19.5763 65.4012 19.3783 65.3292 19.1623C65.2752 18.9823 65.2392 18.7663 65.2392 18.5323V16.1023C65.2392 15.8683 65.2572 15.6523 65.3292 15.4723C65.4012 15.2563 65.5272 15.0763 65.7072 14.9503C65.8692 14.8423 66.0852 14.7523 66.3552 14.7163C66.5892 14.6803 66.8592 14.6803 67.2012 14.6983C68.4072 14.7883 69.6132 14.8783 70.8192 14.9683C71.1612 15.0043 71.4492 15.0403 71.6652 15.1123C71.9352 15.1843 72.1332 15.2923 72.3132 15.4363C72.4932 15.5983 72.6192 15.7783 72.6912 16.0123C72.7452 16.1923 72.7812 16.4083 72.7812 16.6423V19.0723C72.7812 19.3063 72.7632 19.5223 72.6912 19.7023C72.6192 19.9183 72.4932 20.0803 72.3132 20.2063C72.1512 20.3143 71.9352 20.3863 71.6652 20.4223C71.4312 20.4403 71.1612 20.4403 70.8192 20.4223C69.6132 20.3323 68.4072 20.2423 67.2012 20.1523ZM66.6612 15.5623C66.3732 15.5443 66.1572 15.7603 66.1572 16.0303V18.6763C66.1572 18.9643 66.3912 19.1983 66.6612 19.2163C66.8052 19.2343 66.9672 19.2343 67.1112 19.2523H67.2192C68.4252 19.3423 69.6132 19.4323 70.8192 19.5223H70.8912C71.0532 19.5403 71.2152 19.5403 71.3772 19.5583C71.6652 19.5763 71.8812 19.3783 71.8812 19.0903V16.4443C71.8812 16.1563 71.6472 15.9223 71.3772 15.8863C69.7932 15.7963 68.2272 15.6703 66.6612 15.5623Z" fill="white"/>
<path d="M77.7456 21.0884V16.5344C76.6836 16.4264 75.6216 16.3004 74.5596 16.2104V15.3284C76.9716 15.5624 79.4016 15.8324 81.8136 16.1384V17.0204C80.7516 16.8944 79.6896 16.7504 78.6276 16.6424V21.1964C78.3396 21.1604 78.0336 21.1244 77.7456 21.0884Z" fill="white"/>
<path d="M55.9872 19.6303V14.1943C58.3092 14.2483 60.6312 14.3383 62.9352 14.4643V15.3463C60.9192 15.2383 58.9032 15.1663 56.8692 15.1123V16.4623C58.6512 16.5163 60.4512 16.5703 62.2332 16.6603V17.5423C60.4512 17.4523 58.6512 17.3803 56.8692 17.3443V18.7663C58.8852 18.8203 60.9192 18.8923 62.9352 19.0003V19.8823C60.6132 19.7743 58.3092 19.7023 55.9872 19.6303Z" fill="white"/>
<path d="M48.2868 19.5764C47.9448 19.5764 47.6568 19.5584 47.4408 19.5224C47.1708 19.4684 46.9548 19.3784 46.7928 19.2524C46.6128 19.1084 46.4868 18.9284 46.4148 18.7124C46.3608 18.5324 46.3248 18.3344 46.3248 18.0824V15.6704C46.3248 15.1484 46.4688 14.7524 46.7208 14.5004C46.9908 14.2484 47.4228 14.1224 48.0888 14.1224C49.7988 14.1044 51.5268 14.1224 53.2368 14.1404V15.0224C51.4008 15.0044 49.5648 14.9864 47.7108 15.0044C47.4228 15.0044 47.2068 15.2384 47.2068 15.5264V18.1724C47.2068 18.4604 47.4408 18.6764 47.7108 18.6764H48.2688C49.7628 18.6584 51.2568 18.6764 52.7508 18.6944V17.2724C51.7788 17.2544 50.8248 17.2544 49.8528 17.2544V16.3724C51.1128 16.3724 52.3728 16.3904 53.6328 16.4084V19.6124C51.8688 19.5584 50.0688 19.5584 48.2868 19.5764Z" fill="white"/>
<path d="M38.6208 19.8104C38.2788 19.8284 37.9908 19.8104 37.7748 19.7744C37.5048 19.7384 37.2888 19.6484 37.1268 19.5404C36.9468 19.4144 36.8208 19.2344 36.7488 19.0184C36.6948 18.8384 36.6588 18.6404 36.6588 18.3884V14.4644C36.9648 14.4464 37.2528 14.4284 37.5588 14.4284V18.4604C37.5588 18.7484 37.7928 18.9644 38.0628 18.9464C39.5748 18.8744 41.0868 18.8204 42.5988 18.7844C42.8868 18.7844 43.1028 18.5504 43.1028 18.2624V14.2304C43.4088 14.2304 43.6968 14.2124 44.0028 14.2124V18.1364C44.0028 18.3704 43.9848 18.5864 43.9128 18.7664C43.8408 18.9824 43.7148 19.1804 43.5348 19.3244C43.3728 19.4504 43.1568 19.5584 42.8868 19.6124C42.6528 19.6664 42.3828 19.7024 42.0408 19.7024C40.9068 19.7204 39.7548 19.7564 38.6208 19.8104Z" fill="white"/>
<path d="M88.7796 10.22C75.5172 7.934 62.4672 6.854 49.8888 6.854C37.3104 6.854 24.2424 7.934 10.998 10.22C10.8 15.53 10.584 23.7344 10.962 30.7004C11.79 46.2128 15.21 58.2692 21.7224 68.6012C28.2024 78.9116 38.2428 87.7856 49.9032 93.0596C61.5456 87.7856 71.5716 78.9332 78.066 68.6012C84.564 58.2548 87.9804 46.2128 88.8264 30.6824C89.2044 23.7344 88.9704 15.53 88.7724 10.22H88.7796ZM87.3396 30.6104C86.5116 45.8708 83.1636 57.6932 76.7952 67.8092C70.4412 77.9216 60.9048 86.2916 49.8888 91.4036C38.8764 86.2916 29.3364 77.9432 22.9824 67.8092C16.6284 57.6968 13.266 45.8708 12.438 30.6104C12.168 25.6244 12.168 19.364 12.438 11.48C24.8904 9.392 37.4904 8.348 49.8888 8.348C62.2872 8.348 74.8872 9.41 87.3396 11.48C87.6096 19.364 87.6096 25.6244 87.3396 30.6104Z" fill="white"/>
</g>
<defs>
<clipPath id="clip0_1108_1058">
<rect width="81.774" height="90" fill="white" transform="translate(9 5)"/>
</clipPath>
</defs>
</svg>
